<svg width="46" height="46" viewBox="0 0 46 46" fill="none" xmlns="http://www.w3.org/2000/svg">
<rect width="46" height="46" rx="10" fill="#102534"/>
<g clip-path="url(#clip0_0_1)">
<path fill-rule="evenodd" clip-rule="evenodd" d="M23.5013 27.5C24.1643 27.5 24.8002 27.7634 25.2691 28.2322C25.7379 28.7011 26.0013 29.337 26.0013 30C26.0013 30.663 25.7379 31.2989 25.2691 31.7678C24.8002 32.2366 24.1643 32.5 23.5013 32.5C22.8383 32.5 22.2024 32.2366 21.7335 31.7678C21.2647 31.2989 21.0013 30.663 21.0013 30C21.0013 29.337 21.2647 28.7011 21.7335 28.2322C22.2024 27.7634 22.8383 27.5 23.5013 27.5ZM23.5013 22.6837C24.6966 22.6832 25.8727 22.9836 26.9213 23.5573C27.9699 24.1309 28.8572 24.9594 29.5013 25.9662C29.6211 26.1614 29.6597 26.3958 29.6086 26.6191C29.5576 26.8424 29.421 27.0367 29.2282 27.1605C29.0355 27.2842 28.8019 27.3274 28.5776 27.2808C28.3534 27.2342 28.1563 27.1015 28.0288 26.9112C27.543 26.1512 26.8736 25.5258 26.0823 25.0928C25.291 24.6598 24.4033 24.4331 23.5013 24.4337C22.5985 24.4331 21.7101 24.6601 20.9183 25.0938C20.1265 25.5275 19.4569 26.1539 18.9713 26.915C18.8462 27.1104 18.6485 27.2481 18.4218 27.2978C18.1951 27.3475 17.958 27.3051 17.7626 27.18C17.5671 27.0549 17.4294 26.8572 17.3797 26.6305C17.33 26.4038 17.3724 26.1667 17.4976 25.9712C18.1414 24.9629 19.029 24.1331 20.0784 23.5586C21.1277 22.984 22.3049 22.6831 23.5013 22.6837ZM23.5013 17.7537C27.3263 17.7537 30.8301 19.48 33.0963 22.4087C33.2364 22.5924 33.2981 22.824 33.2682 23.053C33.2382 23.282 33.1188 23.4899 32.9362 23.6313C32.7536 23.7727 32.5224 23.8361 32.2932 23.8078C32.064 23.7794 31.8553 23.6616 31.7126 23.48C29.7751 20.9788 26.7826 19.5037 23.5001 19.5037C21.925 19.5019 20.3704 19.8595 18.9544 20.5492C17.5384 21.2389 16.2984 22.2425 15.3288 23.4837C15.2589 23.5769 15.1712 23.6551 15.0707 23.7139C14.9702 23.7726 14.859 23.8108 14.7435 23.826C14.6281 23.8412 14.5108 23.8333 14.3985 23.8026C14.2862 23.772 14.1811 23.7192 14.0895 23.6474C13.9978 23.5756 13.9214 23.4863 13.8647 23.3846C13.808 23.2829 13.7722 23.1709 13.7593 23.0552C13.7465 22.9395 13.7568 22.8224 13.7898 22.7108C13.8227 22.5991 13.8777 22.4952 13.9513 22.405C15.0846 20.9545 16.5338 19.7816 18.1887 18.9756C19.8436 18.1696 21.6606 17.7517 23.5013 17.7537ZM23.5013 12.5C28.3826 12.5 32.5551 14.375 35.7751 17.9C35.9317 18.0714 36.0138 18.298 36.0034 18.53C35.993 18.7619 35.8908 18.9802 35.7194 19.1369C35.548 19.2935 35.3214 19.3757 35.0895 19.3652C34.8575 19.3548 34.6392 19.2526 34.4826 19.0812C31.5913 15.915 27.8876 14.25 23.5013 14.25C19.2238 14.25 15.4351 15.965 12.5138 19.0875C12.4378 19.1796 12.3437 19.2552 12.2374 19.3096C12.131 19.364 12.0147 19.3961 11.8955 19.4038C11.7763 19.4115 11.6568 19.3948 11.5443 19.3546C11.4318 19.3144 11.3288 19.2515 11.2415 19.17C11.1542 19.0884 11.0845 18.9899 11.0368 18.8804C10.9891 18.7709 10.9642 18.6528 10.9639 18.5333C10.9635 18.4139 10.9876 18.2956 11.0347 18.1859C11.0817 18.0761 11.1508 17.9771 11.2376 17.895C14.4813 14.4225 18.7301 12.5 23.5001 12.5H23.5013Z" fill="#05D9FF"/>
</g>
<defs>
<clipPath id="clip0_0_1">
<rect width="25" height="25" fill="white" transform="translate(11 10)"/>
</clipPath>
</defs>
</svg>
