<svg width="1355" height="1016" viewBox="0 0 1355 1016" fill="none" xmlns="http://www.w3.org/2000/svg">
<circle cx="446.5" cy="141.5" r="11.5" fill="#D9D9D9"/>
<circle cx="376.5" cy="232.5" r="11.5" fill="#D9D9D9"/>
<circle cx="958.5" cy="243.5" r="11.5" fill="#D9D9D9"/>
<circle cx="1002.5" cy="476.5" r="11.5" fill="#D9D9D9"/>
<circle cx="1222.5" cy="501.5" r="11.5" fill="#D9D9D9"/>
<circle cx="1214.5" cy="661.5" r="11.5" fill="#D9D9D9"/>
<circle cx="1051.5" cy="684.5" r="11.5" fill="#D9D9D9"/>
<circle cx="914.5" cy="797.5" r="11.5" fill="#D9D9D9"/>
<circle cx="1108.5" cy="862.5" r="11.5" fill="#D9D9D9"/>
<circle cx="1276.5" cy="855.5" r="11.5" fill="#D9D9D9"/>
<circle cx="1304.5" cy="971.5" r="11.5" fill="#D9D9D9"/>
<circle cx="833.5" cy="937.5" r="11.5" fill="#D9D9D9"/>
<circle cx="1082.5" cy="971.5" r="11.5" fill="#D9D9D9"/>
<circle cx="964.5" cy="975.5" r="11.5" fill="#D9D9D9"/>
<circle cx="1218.5" cy="38.5" r="11.5" fill="#D9D9D9"/>
<circle cx="1222.5" cy="400.5" r="11.5" fill="#D9D9D9"/>
<circle cx="793.5" cy="333.5" r="11.5" fill="#D9D9D9"/>
<circle cx="853.5" cy="145.5" r="11.5" fill="#D9D9D9"/>
<circle cx="148.5" cy="198.5" r="11.5" fill="#D9D9D9"/>
<path d="M1126 444.5H1352.5" stroke="black" stroke-width="5"/>
<path d="M525 247.5L523.5 204H553.5" stroke="black" stroke-width="5"/>
<path d="M1154.5 580H1305.5V571L1313.5 562.5H1325.5L1332.5 571V580M1332.5 580L1323.5 590.5H1311L1307 580M1332.5 580H1350.5" stroke="black" stroke-width="5"/>
<path d="M673.5 205.5V244" stroke="black" stroke-width="5"/>
<path d="M694 243.5V175H594.5H746M762.5 175V246.5M762.5 175H746M762.5 175V3M746 175V245M549 247H498.5M457.5 162V175M457.5 175V247H480M457.5 175H556.5M480 247L478 210M480 247H498.5M498.5 247V205" stroke="black" stroke-width="5"/>
<path d="M485.5 576L482.5 737.5M482.5 737.5H620M482.5 737.5V752.5M620 737.5V815L672 817.5V737.5M620 737.5H672M672 737.5H751V817.5H674H803.5M803.5 817.5V737.5H752.5H884.5M803.5 817.5H884.5M884.5 737.5V751.5M884.5 737.5V682.5M884.5 817.5V751.5M884.5 817.5H984.5M884.5 751.5H972.5M984.5 751.5V817.5M984.5 751.5H1082.5V817.5H984.5M984.5 751.5H972.5M972.5 751.5V682.5H884.5M884.5 682.5V599.5M884.5 599.5L886.5 560.5M884.5 599.5L924 600.5M363.5 752.5H299.5V817.5H363.5M363.5 752.5V817.5M363.5 752.5H417M363.5 817.5H417M417 752.5V817.5M417 752.5H482.5M417 817.5H482.5V752.5M907 937.5H1018.25M1129.5 862.5V937.5H1018.25M1018.25 937.5V1002.5M1352 810.5H1154V313M1154 173V313M1154 173H1352.5M1154 173H1145M1154 313H1352.5M1118 164.5V173H1145M1118 164.5H1145V173M1118 164.5L1082 163.948M1082 163.948L922.5 161.5V189H893.5V174.75M1082 163.948V1.5M922.5 160.5H893.5V174.75M893.5 174.75H814.5L817 2L815.5 251.5M815.5 251.5H908.5V190M815.5 251.5L745.5 245.5L693.5 243.5H627.5M605.5 243.5H627.5M627.5 243.5V202.5M627.5 202.5H599.5M627.5 202.5L628 244.5" stroke="black" stroke-width="5"/>
<path d="M2.5 287V163H457.5V2.5H761H1352V1001H906V866H758V1016.5M2.5 287V592.5H45.5H175V287H2.5ZM722.5 935V866H664V938.5H588M474 866V938.5H551M474 866H444.5V914M474 866H522M551 866V938.5M551 938.5H588M588 866V938.5M618 887.5V926.5M640 892.5V926.5M522 892.5V935" stroke="black" stroke-width="5"/>
<path d="M413.5 975V867H318.5V936H238.5M238.5 936V754H55L52 757M238.5 936H52.7346M52 757H45L52.7346 936M52 757V741H47V592.5M318.5 1000H55.5L52.7346 936M318.5 1000V938M318.5 1000H413.5M507.5 303H485M446.5 576H299.5V373.75M446.5 576L452.5 563H468L475 576M446.5 576L452.5 589H468L475 576M475 576H485V412.5M485 412.5V373M485 412.5H671.5V299.5M485 303V373M485 303H389M485 373H475M475 373V385.5H446.5V373.75M475 373V362H446.5V373.75M446.5 373.75H389M299.5 373.75V303H389M299.5 373.75H389M389 373.75V303M671.5 299.5H516.5M671.5 299.5L777.5 302.5M777.5 302.5V414.5H700H886.5V443.5M777.5 302.5L883 299.5M923.5 560.5H886.5V443.5M923.5 560.5L925 508.5H991V641.5L925 642.5L923.5 560.5ZM883 408.5V372M883 299.5H985M883 299.5V372M985 299.5V372M985 299.5H1082V372M985 372H1082M985 372V443.5H886.5M985 372H921M1082 372V445.5H1097M883 372H893M921 372V392H893V372M921 372H893" stroke="black" stroke-width="5"/>
<circle cx="87.5" cy="360.5" r="11.5" fill="#D9D9D9"/>
<circle cx="382.5" cy="646.5" r="11.5" fill="#D9D9D9"/>
<circle cx="393.5" cy="450.5" r="11.5" fill="#D9D9D9"/>
<circle cx="97.5" cy="643.5" r="11.5" fill="#D9D9D9"/>
<circle cx="120.5" cy="793.5" r="11.5" fill="#D9D9D9"/>
<circle cx="276.5" cy="829.5" r="11.5" fill="#D9D9D9"/>
<circle cx="223.5" cy="962.5" r="11.5" fill="#D9D9D9"/>
<circle cx="92.5" cy="985.5" r="11.5" fill="#D9D9D9"/>
<circle cx="521.5" cy="805.5" r="11.5" fill="#D9D9D9"/>
<circle cx="677.5" cy="713.5" r="11.5" fill="#D9D9D9"/>
<circle cx="676.5" cy="457.5" r="11.5" fill="#D9D9D9"/>
<circle cx="17.5" cy="716.5" r="11.5" fill="#D9D9D9"/>
</svg>
