<svg width="46" height="46" viewBox="0 0 46 46" fill="none" xmlns="http://www.w3.org/2000/svg">
<rect width="46" height="46" rx="10" fill="#102534"/>
<path fill-rule="evenodd" clip-rule="evenodd" d="M34.0785 14.3584C35.8943 16.2577 36.6134 18.8696 36.2358 21.3333H33.5228C33.93 19.5481 33.4727 17.5836 32.151 16.2012C30.1948 14.1552 27.075 14.1552 25.1188 16.2012L23 18.4174L20.8811 16.2012C18.925 14.1551 15.8051 14.1551 13.849 16.2012C12.5273 17.5836 12.07 19.5481 12.4772 21.3333H9.7642C9.38658 18.8696 10.1057 16.2576 11.9215 14.3584C14.7109 11.4409 19.1084 11.2302 22.1299 13.7267C22.3683 13.9238 22.5949 14.1348 22.8086 14.3584L23 14.5586L23.1913 14.3584C23.4083 14.1315 23.635 13.9209 23.8701 13.7267C26.8916 11.2302 31.2891 11.4408 34.0785 14.3584ZM29.5088 26.6667H33.1981L23 37.3333L12.8019 26.6667H16.4912L23 33.4745L29.5088 26.6667ZM19 15.6852L15.508 22.6667H9.6667V25.3333H17.1574L19 21.648L23 29.6481L25.1573 25.3333H36.3333V22.6667H26.4907L25 19.6852L23 23.684L19 15.6852Z" fill="#05D9FF"/>
</svg>
