<svg width="1355" height="1016" viewBox="0 0 1355 1016" fill="none"
  xmlns="http://www.w3.org/2000/svg">
  <defs>
    <clipPath id="clip0_37_31">
      <rect width="1355" height="1016" fill="white" />
    </clipPath>
  </defs>
  <g clip-path="url(#clip0_37_31)">
    <!-- AP dots as circles -->
    <circle cx="853.5" cy="145.5" r="11.5" fill="#D9D9D9" data-ap-id="1" />
    <circle cx="1218.5" cy="38.5" r="11.5" fill="#D9D9D9" data-ap-id="2" />
    <circle cx="148.5" cy="198.5" r="11.5" fill="#D9D9D9" data-ap-id="3" />
    <circle cx="376.5" cy="232.5" r="11.5" fill="#D9D9D9" data-ap-id="4" />
    <circle cx="446.5" cy="141.5" r="11.5" fill="#D9D9D9" data-ap-id="5" />
    <circle cx="676.5" cy="469" r="11.5" fill="#D9D9D9" data-ap-id="6" />
    <circle cx="958.5" cy="243.5" r="11.5" fill="#D9D9D9" data-ap-id="7" />
    <circle cx="793.5" cy="333.5" r="11.5" fill="#D9D9D9" data-ap-id="8" />
    <circle cx="1222.5" cy="400.5" r="11.5" fill="#D9D9D9" data-ap-id="9" />
    <circle cx="1222.5" cy="501.5" r="11.5" fill="#D9D9D9" data-ap-id="10" />
    <circle cx="1276.5" cy="623.5" r="11.5" fill="#D9D9D9" data-ap-id="11" />
    <circle cx="1253.5" cy="770.5" r="11.5" fill="#D9D9D9" data-ap-id="12" />
    <circle cx="1002.5" cy="476.5" r="11.5" fill="#D9D9D9" data-ap-id="13" />
    <circle cx="1051.5" cy="684.5" r="11.5" fill="#D9D9D9" data-ap-id="14" />
    <circle cx="914.5" cy="797.5" r="11.5" fill="#D9D9D9" data-ap-id="15" />
    <circle cx="1108.5" cy="862.5" r="11.5" fill="#D9D9D9" data-ap-id="16" />
    <circle cx="87.5" cy="360.5" r="11.5" fill="#D9D9D9" data-ap-id="17" />
    <circle cx="393.5" cy="450.5" r="11.5" fill="#D9D9D9" data-ap-id="18" />
    <circle cx="382.5" cy="646.5" r="11.5" fill="#D9D9D9" data-ap-id="19" />
    <circle cx="17.5" cy="728" r="11.5" fill="#D9D9D9" data-ap-id="20" />
    <circle cx="97.5" cy="643.5" r="11.5" fill="#D9D9D9" data-ap-id="21" />
    <circle cx="120.5" cy="793.5" r="11.5" fill="#D9D9D9" data-ap-id="22" />
    <circle cx="276.5" cy="829.5" r="11.5" fill="#D9D9D9" data-ap-id="23" />
    <circle cx="223.5" cy="962.5" r="11.5" fill="#D9D9D9" data-ap-id="24" />
    <circle cx="92.5" cy="985.5" r="11.5" fill="#D9D9D9" data-ap-id="25" />
    <circle cx="1276.5" cy="855.5" r="11.5" fill="#D9D9D9" data-ap-id="26" />
    <circle cx="1304.5" cy="971.5" r="11.5" fill="#D9D9D9" data-ap-id="27" />
    <circle cx="1082.5" cy="971.5" r="11.5" fill="#D9D9D9" data-ap-id="28" />
    <circle cx="964.5" cy="975.5" r="11.5" fill="#D9D9D9" data-ap-id="29" />
    <circle cx="677.5" cy="725" r="11.5" fill="#D9D9D9" data-ap-id="30" />
    <circle cx="521.5" cy="817" r="11.5" fill="#D9D9D9" data-ap-id="31" />
    <circle cx="833.5" cy="937.5" r="11.5" fill="#D9D9D9" data-ap-id="32" />


    <!-- Floor plan structural paths (unchanged) -->
    <path d="M1126 444.5H1352.5" stroke="#94A3B8" stroke-width="5" />
    <path d="M525 247.5L523.5 204H553.5" stroke="#94A3B8" stroke-width="5" />
    <path
      d="M1154.5 580H1305.5V571L1313.5 562.5H1325.5L1332.5 571V580M1332.5 580L1323.5 590.5H1311L1307 580M1332.5 580H1350.5"
      stroke="#94A3B8" stroke-width="5" />
    <path d="M673.5 205.5V244" stroke="#94A3B8" stroke-width="5" />
    <path
      d="M694 243.5V175H594.5H746M746 175H762.5M746 175V245M762.5 175V246.5M762.5 175V3M549 247H498.5M498.5 247H480M498.5 247V205M457.5 162V175M457.5 175V247H480M457.5 175H556.5M480 247L478 210"
      stroke="#94A3B8" stroke-width="5" />
    <path
      d="M485.5 576L482.5 737.5M482.5 737.5H620M482.5 737.5V752.5M620 737.5V815L672 817.5V737.5M620 737.5H672M482.5 752.5H417M482.5 752.5V817.5H417M672 737.5H751V817.5H674H803.5M803.5 817.5V737.5H752.5H884.5M803.5 817.5H884.5M884.5 737.5V751.5M884.5 737.5V682.5M884.5 817.5V751.5M884.5 817.5H984.5M884.5 751.5H972.5M884.5 682.5H972.5V751.5M884.5 682.5V599.5M984.5 817.5V751.5M984.5 817.5H1082.5V751.5H984.5M972.5 751.5H984.5M884.5 599.5L886.5 560.5M884.5 599.5L924 600.5M363.5 752.5H299.5V817.5H363.5M363.5 752.5V817.5M363.5 752.5H417M363.5 817.5H417M417 752.5V817.5M907 937.5H1018.25M1018.25 937.5H1129.5V862.5M1018.25 937.5V1002.5M1352 810.5H1154V313M1154 313V173M1154 313H1352.5M1154 173H1352.5M1154 173H1145M1145 173H1118V164.5M1145 173V164.5H1118M1118 164.5L1082 163.948M1082 163.948L922.5 161.5V189H893.5V174.75M1082 163.948V1.5M893.5 174.75V160.5H922.5M893.5 174.75H814.5L817 2L815.5 251.5M815.5 251.5H908.5V190M815.5 251.5L745.5 245.5L693.5 243.5H627.5M627.5 243.5H605.5M627.5 243.5V202.5M627.5 202.5H599.5M627.5 202.5L628 244.5"
      stroke="#94A3B8" stroke-width="5" />
    <path
      d="M2.5 287V163H457.5V2.5H761H1352V1001H906V866H758V1016.5M2.5 287V592.5H45.5H175V287H2.5ZM722.5 935V866H664V938.5H588M588 938.5H551M588 938.5V866M474 866V938.5H551M474 866H444.5V914M474 866H522M551 938.5V866M618 887.5V926.5M640 892.5V926.5M522 892.5V935"
      stroke="#94A3B8" stroke-width="5" />
    <path
      d="M413.5 975V867H318.5V936H238.5M238.5 936V754H55L52 757M238.5 936H52.7346M52 757H45L52.7346 936M52 757V741H47V592.5M52.7346 936L55.5 1000H318.5M318.5 1000V938M318.5 1000H413.5M507.5 303H485M485 303V373M485 303H389M446.5 576H299.5V373.75M446.5 576L452.5 563H468L475 576M446.5 576L452.5 589H468L475 576M299.5 373.75V303H389M299.5 373.75H389M475 576H485V412.5M485 412.5V373M485 412.5H671.5V299.5M485 373H475M671.5 299.5H516.5M671.5 299.5L777.5 302.5M389 303V373.75M475 373V385.5H446.5V373.75M475 373V362H446.5V373.75M446.5 373.75H389M777.5 302.5V414.5H700H886.5V443.5M777.5 302.5L883 299.5M886.5 443.5V560.5H923.5M886.5 443.5H985V372M883 299.5H985M883 299.5V372M923.5 560.5L925 508.5H991V641.5L925 642.5L923.5 560.5ZM883 408.5V372M883 372H893M985 299.5V372M985 299.5H1082V372M985 372H1082M985 372H921M1082 372V445.5H1097M921 372V392H893V372M921 372H893"
      stroke="#94A3B8" stroke-width="5" />

    <!-- All the room names -->
    <path
      d="M2.5 287V163H457.5V2.5H761H1352V1001H906V866H758V1016.5M2.5 287V592.5H45.5H175V287H2.5ZM722.5 935V866H664V938.5H588M588 938.5H551M588 938.5V866M474 866V938.5H551M474 866H444.5V914M474 866H522M551 938.5V866M618 887.5V926.5M640 892.5V926.5M522 892.5V935"
      stroke="#94A3B8" stroke-width="5" />
    <path
      d="M47.5873 437H49.1873V443.74L50.7673 442.8H53.2273L54.8473 443.74V437H56.4673V451H54.8473V445.36L54.0873 444.26H49.7873L49.1873 444.86V451H47.5873V437ZM61.2195 440.38H66.8795L68.4795 442.78V449.34L66.8795 451H61.2395L59.6195 448.6V442.04L61.2195 440.38ZM61.1995 448.4L61.9995 449.56H66.2395L66.8395 448.92V442.96L66.0795 441.82H61.8195L61.1995 442.48V448.4ZM78.8117 440.38H80.4317V451H78.8517V450.02L77.2117 451H73.2117L71.5917 448.6V440.38H73.1917V448.4L73.9717 449.54H78.2317L78.8117 448.92V440.38ZM85.3039 440.38H90.8239L91.8639 441.92L90.8839 442.96L90.0839 441.78H86.0039L85.3839 442.32V443.84L86.1439 444.92H90.8639L92.2239 446.96V449.5L90.8639 451H84.5839L83.7839 449.76L84.7639 448.74L85.3039 449.56H90.2039L90.6239 449.08V447.2L90.0439 446.38H85.3039L83.7839 444.08V441.86L85.3039 440.38ZM97.5761 436.04H99.1761V440.36H102.416V441.82H99.1761V448.4L99.9561 449.54H101.976L103.176 448.34L103.996 449.54L102.636 451H99.1761L97.5761 448.64V441.82H95.9961V440.36H97.5761V436.04ZM109.188 440.38H114.848L116.448 442.78V449.34L114.848 451H109.208L107.588 448.6V442.04L109.188 440.38ZM109.168 448.4L109.968 449.56H114.208L114.808 448.92V442.96L114.048 441.82H109.788L109.168 442.48V448.4ZM119.56 440.38H121.16V441.34L122.78 440.38H126.8L128.42 442.74V451H126.8V442.94L126.04 441.82H121.78L121.16 442.46V451H119.56V440.38ZM68.8556 463H74.4156V477H72.8156V470.6H67.2156V477H65.6156V466.34L68.8556 463ZM67.2156 466.72V469.16H72.8156V464.44H69.4356L67.2156 466.72ZM80.6078 477V474.2H83.4078V477H80.6078ZM93.2 463H94.82V475.56H98.42V477H89.58V475.56H93.2V465.1L90.68 467.7L89.84 466.44L93.2 463ZM107.252 463H109.812V470.72H111.012V472.18H109.812V477H108.192V472.18H102.812L100.972 469.48L107.252 463ZM102.812 469.66L103.532 470.72H108.192V464.1L102.812 469.66Z"
      fill="white" />
    <path
      d="M207.547 241H213.167L214.487 243L213.467 244.08L212.407 242.44H208.147L207.527 243.1V252.4L208.307 253.56H212.527L213.727 252.36L214.527 253.56L213.167 255H207.527L205.927 252.6V242.66L207.547 241ZM220.86 241H226.42V255H224.82V248.6H219.22V255H217.62V244.34L220.86 241ZM219.22 244.72V247.16H224.82V242.44H221.44L219.22 244.72ZM236.832 241H238.452V255H236.832V249.66L231.972 242.44H231.192V255H229.592V241H232.732L236.832 247.06V241ZM240.784 241H251.224V242.44H245.264L246.824 243.4V255H245.204V243.6L244.444 242.44H240.784V241ZM253.576 241H262.416V242.46H258.796V253.54H262.416V255H253.576V253.54H257.196V242.46H253.576V241ZM272.808 241H274.428V255H272.808V249.66L267.948 242.44H267.168V255H265.568V241H268.708L272.808 247.06V241ZM280.82 241H286.38V255H284.78V248.6H279.18V255H277.58V244.34L280.82 241ZM279.18 244.72V247.16H284.78V242.44H281.4L279.18 244.72Z"
      fill="white" />
    <path
      d="M1196.58 912H1198.18V918.74L1199.76 917.8H1202.22L1203.84 918.74V912H1205.46V926H1203.84V920.36L1203.08 919.26H1198.78L1198.18 919.86V926H1196.58V912ZM1208.59 912H1217.43V913.46H1213.81V924.54H1217.43V926H1208.59V924.54H1212.21V913.46H1208.59V912ZM1227.82 912H1229.42V921.48L1225.08 926H1223.68L1220.58 921.4V912H1222.18V921.18L1224.44 924.58L1227.82 921.08V912ZM1234.17 912H1241.41V913.44H1234.77L1234.15 914.1V917.8H1238.79V919.26H1234.15V923.4L1234.93 924.56H1241.41V926H1234.15L1232.55 923.6V913.66L1234.17 912Z"
      fill="white" />
    <path
      d="M1218.4 673H1225.64V685.06L1222.42 688.44H1220V687H1221.8L1224.04 684.62V674.46H1218.4V673ZM1236.82 676.38H1238.44V687H1236.86V686.02L1235.22 687H1231.22L1229.6 684.6V676.38H1231.2V684.4L1231.98 685.54H1236.24L1236.82 684.92V676.38ZM1241.59 676.38H1243.19V677.34L1244.81 676.38H1248.83L1250.45 678.74V687H1248.83V678.94L1248.07 677.82H1243.81L1243.19 678.46V687H1241.59V676.38ZM1256.48 685.82L1255.34 686.92V688.52L1256.14 689.72H1259.12L1260.8 688.02V686.42L1260.42 685.82H1256.48ZM1255.34 678.34V681.42H1259.18L1260.8 680.42V678.5L1260.04 677.4H1256.2L1255.34 678.34ZM1259.22 682.9H1256.14L1255.4 683.66L1255.82 684.34H1261.2L1262.42 686.24V688.36L1259.72 691.18H1255.4L1253.72 688.68V686.58L1254.86 685.44L1253.56 683.5L1254.6 682.46L1253.72 681.92V677.9L1255.6 675.94H1259.2L1260.8 676.92V675.94H1262.42V680.94L1259.22 682.9ZM1265.55 672.04H1268.55L1270.17 673V684.42L1270.93 685.56H1274.41L1274.39 687H1270.17L1268.55 684.62V673.48H1265.55V672.04ZM1279.14 676.38H1284.74L1286.4 678.76L1283.1 682.16H1279.14V684.4L1279.92 685.56H1284.16L1285.28 684.46L1286.16 685.56L1284.76 687H1279.16L1277.54 684.6V678.04L1279.14 676.38ZM1279.14 678.46V680.72H1282.5L1284.52 678.6L1284 677.82H1279.78L1279.14 678.46ZM1238.85 699H1244.41V713H1242.81V706.6H1237.21V713H1235.61V702.34L1238.85 699ZM1237.21 702.72V705.16H1242.81V700.44H1239.43L1237.21 702.72ZM1250.6 713V710.2H1253.4V713H1250.6ZM1261.2 699H1266.9L1268.44 701.3V703.4L1261.16 710.9V711.56H1268.44V713H1259.56V710.48L1267.4 702.36L1266.12 700.44H1261.8L1260.38 701.86L1259.58 700.66L1261.2 699Z"
      fill="white" />
    <path
      d="M1218.4 673H1225.64V685.06L1222.42 688.44H1220V687H1221.8L1224.04 684.62V674.46H1218.4V673ZM1236.82 676.38H1238.44V687H1236.86V686.02L1235.22 687H1231.22L1229.6 684.6V676.38H1231.2V684.4L1231.98 685.54H1236.24L1236.82 684.92V676.38ZM1241.59 676.38H1243.19V677.34L1244.81 676.38H1248.83L1250.45 678.74V687H1248.83V678.94L1248.07 677.82H1243.81L1243.19 678.46V687H1241.59V676.38ZM1256.48 685.82L1255.34 686.92V688.52L1256.14 689.72H1259.12L1260.8 688.02V686.42L1260.42 685.82H1256.48ZM1255.34 678.34V681.42H1259.18L1260.8 680.42V678.5L1260.04 677.4H1256.2L1255.34 678.34ZM1259.22 682.9H1256.14L1255.4 683.66L1255.82 684.34H1261.2L1262.42 686.24V688.36L1259.72 691.18H1255.4L1253.72 688.68V686.58L1254.86 685.44L1253.56 683.5L1254.6 682.46L1253.72 681.92V677.9L1255.6 675.94H1259.2L1260.8 676.92V675.94H1262.42V680.94L1259.22 682.9ZM1265.55 672.04H1268.55L1270.17 673V684.42L1270.93 685.56H1274.41L1274.39 687H1270.17L1268.55 684.62V673.48H1265.55V672.04ZM1279.14 676.38H1284.74L1286.4 678.76L1283.1 682.16H1279.14V684.4L1279.92 685.56H1284.16L1285.28 684.46L1286.16 685.56L1284.76 687H1279.16L1277.54 684.6V678.04L1279.14 676.38ZM1279.14 678.46V680.72H1282.5L1284.52 678.6L1284 677.82H1279.78L1279.14 678.46ZM1238.85 699H1244.41V713H1242.81V706.6H1237.21V713H1235.61V702.34L1238.85 699ZM1237.21 702.72V705.16H1242.81V700.44H1239.43L1237.21 702.72ZM1250.6 713V710.2H1253.4V713H1250.6ZM1261.2 699H1266.9L1268.44 701.3V703.4L1261.16 710.9V711.56H1268.44V713H1259.56V710.48L1267.4 702.36L1266.12 700.44H1261.8L1260.38 701.86L1259.58 700.66L1261.2 699Z"
      fill="white" />
    <path
      d="M1239.85 235H1245.41V249H1243.81V242.6H1238.21V249H1236.61V238.34L1239.85 235ZM1238.21 238.72V241.16H1243.81V236.44H1240.43L1238.21 238.72ZM1250.2 235H1255.9L1257.44 237.3V239.4L1250.16 246.9V247.56H1257.44V249H1248.56V246.48L1256.4 238.36L1255.12 236.44H1250.8L1249.38 237.86L1248.58 236.66L1250.2 235ZM1260.56 235H1269.02V236.44H1262.16V239.14L1262.28 239.34H1267.22L1269.44 242.58V247.26L1267.76 249H1260.56V247.56H1267.1L1267.82 246.82V242.76L1266.46 240.8H1261.54L1260.56 239.34V235Z"
      fill="white" />
    <path
      d="M1205.85 95H1211.41V109H1209.81V102.6H1204.21V109H1202.61V98.34L1205.85 95ZM1204.21 98.72V101.16H1209.81V96.44H1206.43L1204.21 98.72ZM1216.2 95H1221.9L1223.44 97.3V99.4L1216.16 106.9V107.56H1223.44V109H1214.56V106.48L1222.4 98.36L1221.12 96.44H1216.8L1215.38 97.86L1214.58 96.66L1216.2 95ZM1232.26 95H1234.82V102.72H1236.02V104.18H1234.82V109H1233.2V104.18H1227.82L1225.98 101.48L1232.26 95ZM1227.82 101.66L1228.54 102.72H1233.2V96.1L1227.82 101.66ZM1178.61 121H1185.85L1187.45 123.4V126.64L1185.85 128.26H1180.21V135H1178.61V121ZM1180.23 122.44V127.78L1181.85 126.84H1185.23L1185.85 126.2V123.62L1185.07 122.44H1180.23ZM1192.08 123.94H1198.36L1199.62 125.8V135H1197.94V133.98L1196.26 135H1192.08L1190.4 132.5V131.7L1193.52 128.46H1197.94V125.42H1192.08V123.94ZM1192.08 132.3L1192.86 133.48H1197.94V129.98H1194.18L1192.08 132.14V132.3ZM1202.59 124.38H1204.19V125.34L1205.81 124.38H1209.83L1211.45 126.74V135H1209.83V126.94L1209.07 125.82H1204.81L1204.19 126.46V135H1202.59V124.38ZM1221.84 120.02H1223.46V135H1221.84V134.04L1220.24 135H1216.26L1214.6 132.58V126.06L1216.22 124.36H1220.22L1221.84 125.32V120.02ZM1216.22 132.38L1216.98 133.54H1221.26L1221.84 132.94V126.96L1221.08 125.82H1216.84L1216.22 126.46V132.38ZM1228.2 124.38H1233.86L1235.46 126.78V133.34L1233.86 135H1228.22L1226.6 132.6V126.04L1228.2 124.38ZM1228.18 132.4L1228.98 133.56H1233.22L1233.82 132.92V126.96L1233.06 125.82H1228.8L1228.18 126.48V132.4ZM1238.47 124.38H1239.35L1241.25 125.52L1242.35 124.38H1246.47L1247.51 125.9L1246.31 126.72L1245.71 125.82H1242.97L1242.09 126.76V133.56H1244.91V135H1238.47V133.56H1240.49V126.96L1239.71 125.82H1238.47V124.38ZM1252.04 123.94H1258.32L1259.58 125.8V135H1257.9V133.98L1256.22 135H1252.04L1250.36 132.5V131.7L1253.48 128.46H1257.9V125.42H1252.04V123.94ZM1252.04 132.3L1252.82 133.48H1257.9V129.98H1254.14L1252.04 132.14V132.3Z"
      fill="white" />
    <path
      d="M944.852 49H950.412V63H948.812V56.6H943.212V63H941.612V52.34L944.852 49ZM943.212 52.72V55.16H948.812V50.44H945.432L943.212 52.72ZM955.204 49H960.904L962.444 51.3V53.4L955.164 60.9V61.56H962.444V63H953.564V60.48L961.404 52.36L960.124 50.44H955.804L954.384 51.86L953.584 50.66L955.204 49ZM965.556 49H974.436V50.66L970.436 54.8H972.236L974.436 58.06V61.26L972.756 63H965.556V61.56H972.116L972.836 60.82V58.22L971.456 56.26H968.596V54.64L972.676 50.44H965.556V49ZM913.551 75H919.171L920.491 77L919.471 78.08L918.411 76.44H914.151L913.531 77.1V86.4L914.311 87.56H918.531L919.731 86.36L920.531 87.56L919.171 89H913.531L911.931 86.6V76.66L913.551 75ZM925.183 78.38H930.783L932.443 80.76L929.143 84.16H925.183V86.4L925.963 87.56H930.203L931.323 86.46L932.203 87.56L930.803 89H925.203L923.583 86.6V80.04L925.183 78.38ZM925.183 80.46V82.72H928.543L930.563 80.6L930.043 79.82H925.823L925.183 80.46ZM935.196 78.38H936.796V79.34L938.396 78.38H939.236L940.156 79.76L942.456 78.38H943.236L944.856 80.76V89H943.236V80.96L942.476 79.82H941.456L940.856 80.48V83.46H939.236V80.96L938.476 79.82H937.416L936.796 80.48V89H935.196V78.38ZM949.168 78.38H954.768L956.428 80.76L953.128 84.16H949.168V86.4L949.948 87.56H954.188L955.308 86.46L956.188 87.56L954.788 89H949.188L947.568 86.6V80.04L949.168 78.38ZM949.168 80.46V82.72H952.528L954.548 80.6L954.028 79.82H949.808L949.168 80.46ZM961.58 74.04H963.18V78.36H966.42V79.82H963.18V86.4L963.96 87.54H965.98L967.18 86.34L968 87.54L966.64 89H963.18L961.58 86.64V79.82H960V78.36H961.58V74.04ZM973.052 77.94H979.332L980.592 79.8V89H978.912V87.98L977.232 89H973.052L971.372 86.5V85.7L974.492 82.46H978.912V79.42H973.052V77.94ZM973.052 86.3L973.832 87.48H978.912V83.98H975.152L973.052 86.14V86.3ZM983.464 78.38H984.344L986.244 79.52L987.344 78.38H991.464L992.504 79.9L991.304 80.72L990.704 79.82H987.964L987.084 80.76V87.56H989.904V89H983.464V87.56H985.484V80.96L984.704 79.82H983.464V78.38ZM1002.78 78.36H1004.4V89.96L1001.16 93.34H995.557V91.88H1000.5L1002.78 89.54V89H997.557L995.557 86.04V78.36H997.157V85.84L998.337 87.54H1002.78V78.36Z"
      fill="white" />
    <path
      d="M1266.85 515.8H1273.01L1273.76 516.888V518.36L1271.79 520.44H1272.43L1273.92 522.632V526.216L1272.64 527H1266.85V515.8ZM1268.13 516.952V520.44H1270.17L1272.48 518.056V516.952H1268.13ZM1268.13 521.608V525.848H1272.64V522.76L1271.82 521.608H1268.13ZM1277.46 518.152H1282.49L1283.5 519.64V527H1282.15V526.184L1280.81 527H1277.46L1276.12 525V524.36L1278.62 521.768H1282.15V519.336H1277.46V518.152ZM1277.46 524.84L1278.09 525.784H1282.15V522.984H1279.14L1277.46 524.712V524.84ZM1285.89 515.032H1287.17V519.272L1288.45 518.488H1291.68L1292.99 520.44V525.656L1291.68 527H1288.48L1287.17 526.232V527H1285.89V515.032ZM1287.17 520.184V525.832H1291.22L1291.7 525.32V520.584L1291.07 519.656H1287.68L1287.17 520.184ZM1301.24 518.488H1302.54V527.768L1299.95 530.472H1295.47V529.304H1299.42L1301.24 527.432V527H1297.07L1295.47 524.632V518.488H1296.75V524.472L1297.69 525.832H1301.24V518.488ZM1305.04 515.032H1307.44L1308.74 515.8V524.936L1309.35 525.848H1312.13L1312.12 527H1308.74L1307.44 525.096V516.184H1305.04V515.032ZM1315.95 518.504H1320.48L1321.76 520.424V525.672L1320.48 527H1315.97L1314.67 525.08V519.832L1315.95 518.504ZM1315.93 524.92L1316.57 525.848H1319.97L1320.45 525.336V520.568L1319.84 519.656H1316.43L1315.93 520.184V524.92ZM1324.25 518.504H1325.53V519.272L1326.82 518.504H1330.04L1331.34 520.392V527H1330.04V520.552L1329.43 519.656H1326.02L1325.53 520.168V527H1324.25V518.504ZM1288.48 535.8H1292.93V547H1291.65V541.88H1287.17V547H1285.89V538.472L1288.48 535.8ZM1287.17 538.776V540.728H1291.65V536.952H1288.95L1287.17 538.776ZM1297.88 547V544.76H1300.12V547H1297.88ZM1307.96 535.8H1309.25V545.848H1312.13V547H1305.06V545.848H1307.96V537.48L1305.94 539.56L1305.27 538.552L1307.96 535.8Z"
      fill="white" />
    <path
      d="M809.28 965.8H810.56V966.248L812.24 968.728L815.072 965.8H816.368V977H815.072V967.48L813.488 969.144V970.6H812.096V970.568L810.56 968.296V977H809.28V965.8ZM824.649 968.504H825.945V977H824.681V976.216L823.369 977H820.169L818.873 975.08V968.504H820.153V974.92L820.777 975.832H824.185L824.649 975.336V968.504ZM830.067 965.032H831.347V968.488H833.939V969.656H831.347V974.92L831.971 975.832H833.587L834.547 974.872L835.203 975.832L834.115 977H831.347L830.067 975.112V969.656H828.803V968.488H830.067V965.032ZM839.325 968.504H843.805L845.133 970.408L842.493 973.128H839.325V974.92L839.949 975.848H843.341L844.237 974.968L844.941 975.848L843.821 977H839.341L838.045 975.08V969.832L839.325 968.504ZM839.325 970.168V971.976H842.013L843.629 970.28L843.213 969.656H839.837L839.325 970.168ZM853.463 965.016H854.759V977H853.463V976.232L852.183 977H848.999L847.671 975.064V969.848L848.967 968.488H852.167L853.463 969.256V965.016ZM848.967 974.904L849.575 975.832H852.999L853.463 975.352V970.568L852.855 969.656H849.463L848.967 970.168V974.904ZM821.481 985.8H825.929V997H824.649V991.88H820.169V997H818.889V988.472L821.481 985.8ZM820.169 988.776V990.728H824.649V986.952H821.945L820.169 988.776ZM830.883 997V994.76H833.123V997H830.883ZM839.341 985.8H843.837V986.952H839.837L839.341 987.464V991.608L840.493 990.44H844.445L845.133 991.464V995.112L843.293 997H839.341L838.061 995.048V987.128L839.341 985.8ZM839.341 994.92L839.997 995.848H842.813L843.837 994.776V991.608H840.973L839.341 993.24V994.92Z"
      fill="white" />
    <path
      d="M1279.85 363H1285.41V377H1283.81V370.6H1278.21V377H1276.61V366.34L1279.85 363ZM1278.21 366.72V369.16H1283.81V364.44H1280.43L1278.21 366.72ZM1290.2 363H1295.9L1297.44 365.3V367.4L1290.16 374.9V375.56H1297.44V377H1288.56V374.48L1296.4 366.36L1295.12 364.44H1290.8L1289.38 365.86L1288.58 364.66L1290.2 363ZM1302.18 363H1307.8V364.44H1302.8L1302.18 365.08V370.26L1303.62 368.8H1308.56L1309.42 370.08V374.64L1307.12 377H1302.18L1300.58 374.56V364.66L1302.18 363ZM1302.18 374.4L1303 375.56H1306.52L1307.8 374.22V370.26H1304.22L1302.18 372.3V374.4Z"
      fill="white" />
    <path
      d="M371.796 494H377.956L380.656 498.02V506.34L379.056 508H371.796V494ZM373.396 495.44V506.56H378.396L379.036 505.9V498.22L377.176 495.44H373.396ZM385.068 496.94H391.348L392.608 498.8V508H390.928V506.98L389.248 508H385.068L383.388 505.5V504.7L386.508 501.46H390.928V498.42H385.068V496.94ZM385.068 505.3L385.848 506.48H390.928V502.98H387.168L385.068 505.14V505.3ZM395.48 497.38H396.36L398.26 498.52L399.36 497.38H403.48L404.52 498.9L403.32 499.72L402.72 498.82H399.98L399.1 499.76V506.56H401.92V508H395.48V506.56H397.5V499.96L396.72 498.82H395.48V497.38ZM407.572 493.04H409.172V501.12L413.392 496.76H415.392L412.372 499.86L416.432 505.86V508H414.812V506.04L411.332 500.94L409.172 503.16V508H407.572V493.04ZM359.603 520H361.203V520.56L363.303 523.66L366.843 520H368.463V534H366.843V522.1L364.863 524.18V526H363.123V525.96L361.203 523.12V534H359.603V520ZM373.076 522.94H379.356L380.616 524.8V534H378.936V532.98L377.256 534H373.076L371.396 531.5V530.7L374.516 527.46H378.936V524.42H373.076V522.94ZM373.076 531.3L373.856 532.48H378.936V528.98H375.176L373.076 531.14V531.3ZM385.588 519.04H387.188V523.36H390.428V524.82H387.188V531.4L387.968 532.54H389.988L391.188 531.34L392.008 532.54L390.648 534H387.188L385.588 531.64V524.82H384.008V523.36H385.588V519.04ZM397.58 519.04H399.18V523.36H402.42V524.82H399.18V531.4L399.96 532.54H401.98L403.18 531.34L404 532.54L402.64 534H399.18L397.58 531.64V524.82H396V523.36H397.58V519.04ZM409.152 523.38H414.752L416.412 525.76L413.112 529.16H409.152V531.4L409.932 532.56H414.172L415.292 531.46L416.172 532.56L414.772 534H409.172L407.552 531.6V525.04L409.152 523.38ZM409.152 525.46V527.72H412.512L414.532 525.6L414.012 524.82H409.792L409.152 525.46ZM419.464 523.38H420.344L422.244 524.52L423.344 523.38H427.464L428.504 524.9L427.304 525.72L426.704 524.82H423.964L423.084 525.76V532.56H425.904V534H419.464V532.56H421.484V525.96L420.704 524.82H419.464V523.38ZM371.796 546H379.496L380.436 547.36V549.2L377.976 551.8H378.776L380.636 554.54V559.02L379.036 560H371.796V546ZM373.396 547.44V551.8H375.956L378.836 548.82V547.44H373.396ZM373.396 553.26V558.56H379.036V554.7L378.016 553.26H373.396ZM386.608 560V557.2H389.408V560H386.608ZM399.2 546H400.82V558.56H404.42V560H395.58V558.56H399.2V548.1L396.68 550.7L395.84 549.44L399.2 546ZM413.252 546H415.812V553.72H417.012V555.18H415.812V560H414.192V555.18H408.812L406.972 552.48L413.252 546ZM408.812 552.66L409.532 553.72H414.192V547.1L408.812 552.66Z"
      fill="white" />
    <path
      d="M215.543 670H221.163L222.483 672L221.463 673.08L220.403 671.44H216.143L215.523 672.1V681.4L216.303 682.56H220.523L221.723 681.36L222.523 682.56L221.163 684H215.523L213.923 681.6V671.66L215.543 670ZM227.196 670H232.876L234.456 672.4V682.34L232.876 684H227.196L225.576 681.6V671.66L227.196 670ZM227.176 681.4L227.956 682.56H232.236L232.836 681.9V672.6L232.076 671.44H227.796L227.176 672.1V681.4ZM239.188 670H244.828L245.888 671.64L244.868 672.64L244.048 671.44H239.788L239.188 672.08V674.66L239.988 675.82H245.008L246.428 677.94V682.54L245.028 684H238.468L237.588 682.76L238.588 681.7L239.208 682.56H244.348L244.828 682.14V678.12L244.228 677.26H239.188L237.588 674.88V671.66L239.188 670ZM249.58 670H251.18V670.56L253.28 673.66L256.82 670H258.44V684H256.82V672.1L254.84 674.18V676H253.1V675.96L251.18 673.12V684H249.58V670ZM263.172 670H268.852L270.432 672.4V682.34L268.852 684H263.172L261.552 681.6V671.66L263.172 670ZM263.152 681.4L263.932 682.56H268.212L268.812 681.9V672.6L268.052 671.44H263.772L263.152 672.1V681.4ZM275.164 670H280.804L281.864 671.64L280.844 672.64L280.024 671.44H275.764L275.164 672.08V674.66L275.964 675.82H280.984L282.404 677.94V682.54L281.004 684H274.444L273.564 682.76L274.564 681.7L275.184 682.56H280.324L280.804 682.14V678.12L280.204 677.26H275.164L273.564 674.88V671.66L275.164 670Z"
      fill="white" />
    <path
      d="M442.711 760.2H443.831V760.592L445.301 762.762L447.779 760.2H448.913V770H447.779V761.67L446.393 763.126V764.4H445.175V764.372L443.831 762.384V770H442.711V760.2ZM453.5 760.2H456.608L457.294 761.166L456.58 761.894L456.118 761.208H453.962L453.346 761.838V764.26H456.118V765.268H453.346V770H452.226V765.268H451.106V764.26H452.226V761.516L453.5 760.2ZM434.303 778.2H439.007L440.519 780.398V781.798L439.133 783.212L440.519 785.214V788H439.385V785.34L437.971 783.282H436.529L435.423 782.596V788H434.303V778.2ZM435.423 779.208V782.26H438.671L439.385 781.546V780.552L438.461 779.208H435.423ZM443.845 780.566H447.807L448.927 782.246V786.838L447.807 788H443.859L442.725 786.32V781.728L443.845 780.566ZM443.831 786.18L444.391 786.992H447.359L447.779 786.544V782.372L447.247 781.574H444.265L443.831 782.036V786.18ZM452.24 780.566H456.202L457.322 782.246V786.838L456.202 788H452.254L451.12 786.32V781.728L452.24 780.566ZM452.226 786.18L452.786 786.992H455.754L456.174 786.544V782.372L455.642 781.574H452.66L452.226 782.036V786.18ZM459.221 780.566H460.341V781.238L461.461 780.566H462.049L462.693 781.532L464.303 780.566H464.849L465.983 782.232V788H464.849V782.372L464.317 781.574H463.603L463.183 782.036V784.122H462.049V782.372L461.517 781.574H460.775L460.341 782.036V788H459.221V780.566ZM434.457 796.2H439.847L440.505 797.152V798.44L438.783 800.26H439.343L440.645 802.178V805.314L439.525 806H434.457V796.2ZM435.577 797.208V800.26H437.369L439.385 798.174V797.208H435.577ZM435.577 801.282V804.992H439.525V802.29L438.811 801.282H435.577ZM444.825 806V804.04H446.785V806H444.825ZM453.64 796.2H454.774V804.992H457.294V806H451.106V804.992H453.64V797.67L451.876 799.49L451.288 798.608L453.64 796.2ZM460.635 796.2H464.583L465.689 797.866V804.838L464.583 806H460.635L459.501 804.32V797.362L460.635 796.2ZM460.621 797.67V802.626L464.555 798.552V798.02L464.009 797.208H461.055L460.621 797.67ZM460.621 804.18L461.167 804.992H464.135L464.555 804.53V799.994L460.621 804.082V804.18Z"
      fill="white" />
    <path
      d="M692.147 767.566H693.267V772.984L691.321 775H690.299L689.459 773.726L688.213 775H687.219L685.385 772.284V767.566H686.505V772.144L687.737 773.978H687.807L688.759 772.984V767.566H689.893V772.578L690.845 773.978H690.887L692.147 772.69V767.566ZM699.114 763.87L699.828 764.584L696.72 767.804V773.796L699.828 777.016L699.114 777.73L695.6 774.09V767.51L699.114 763.87ZM702.944 767.566H703.56L704.89 768.364L705.66 767.566H708.544L709.272 768.63L708.432 769.204L708.012 768.574H706.094L705.478 769.232V773.992H707.452V775H702.944V773.992H704.358V769.372L703.812 768.574H702.944V767.566ZM712.543 767.566H716.505L717.625 769.246V773.838L716.505 775H712.557L711.423 773.32V768.728L712.543 767.566ZM712.529 773.18L713.089 773.992H716.057L716.477 773.544V769.372L715.945 768.574H712.963L712.529 769.036V773.18ZM720.937 767.566H724.899L726.019 769.246V773.838L724.899 775H720.951L719.817 773.32V768.728L720.937 767.566ZM720.923 773.18L721.483 773.992H724.451L724.871 773.544V769.372L724.339 768.574H721.357L720.923 769.036V773.18ZM727.918 767.566H729.038V768.238L730.158 767.566H730.746L731.39 768.532L733 767.566H733.546L734.68 769.232V775H733.546V769.372L733.014 768.574H732.3L731.88 769.036V771.122H730.746V769.372L730.214 768.574H729.472L729.038 769.036V775H727.918V767.566ZM738.314 763.87L741.814 767.51V774.09L738.314 777.73L737.558 777.016L740.68 773.796V767.804L737.558 764.584L738.314 763.87ZM703.154 783.2H708.544L709.202 784.152V785.44L707.48 787.26H708.04L709.342 789.178V792.314L708.222 793H703.154V783.2ZM704.274 784.208V787.26H706.066L708.082 785.174V784.208H704.274ZM704.274 788.282V791.992H708.222V789.29L707.508 788.282H704.274ZM713.523 793V791.04H715.483V793H713.523ZM719.803 783.2H725.991V785.02L722.043 789.052V793H720.909V788.758L724.857 784.726V784.208H719.803V783.2Z"
      fill="white" />
    <path
      d="M848.981 208.8H853.429V220H852.149V214.88H847.669V220H846.389V211.472L848.981 208.8ZM847.669 211.776V213.728H852.149V209.952H849.445L847.669 211.776ZM857.263 208.8H861.823L863.055 210.64V212.32L857.231 218.32V218.848H863.055V220H855.951V217.984L862.223 211.488L861.199 209.952H857.743L856.607 211.088L855.967 210.128L857.263 208.8ZM866.857 208.8H871.417L872.649 210.64V212.32L866.825 218.32V218.848H872.649V220H865.545V217.984L871.817 211.488L870.793 209.952H867.337L866.201 211.088L865.561 210.128L866.857 208.8Z"
      fill="white" />
    <path
      d="M563.292 348H570.992L571.932 349.36V351.2L569.472 353.8H570.272L572.132 356.54V361.02L570.532 362H563.292V348ZM564.892 349.44V353.8H567.452L570.332 350.82V349.44H564.892ZM564.892 355.26V360.56H570.532V356.7L569.512 355.26H564.892ZM578.704 348H580.324V360.56H583.924V362H575.084V360.56H578.704V350.1L576.184 352.7L575.344 351.44L578.704 348ZM587.076 348H595.916V350.6L590.276 356.36V362H588.656V355.94L594.296 350.18V349.44H587.076V348Z"
      fill="white" />
    <path
      d="M707.292 353H714.992L715.932 354.36V356.2L713.472 358.8H714.272L716.132 361.54V366.02L714.532 367H707.292V353ZM708.892 354.44V358.8H711.452L714.332 355.82V354.44H708.892ZM708.892 360.26V365.56H714.532V361.7L713.512 360.26H708.892ZM722.704 353H724.324V365.56H727.924V367H719.084V365.56H722.704V355.1L720.184 357.7L719.344 356.44L722.704 353ZM734.076 353H738.496L739.916 355.14V357.86L738.116 359.74L739.916 362.4V364.6L737.636 367H732.696L731.076 364.6V362.14L732.936 360.26H732.716L731.076 357.86V356.12L734.076 353ZM732.676 357.66L733.456 358.8H736.956L738.296 357.48V355.34L737.696 354.44H734.696L732.676 356.5V357.66ZM732.676 364.4L733.456 365.56H736.956L738.296 364.22V362.6L736.716 360.26H734.876L732.676 362.56V364.4Z"
      fill="white" />
    <path
      d="M815.533 382.8H821.693L822.445 383.888V385.36L820.477 387.44H821.117L822.605 389.632V393.216L821.325 394H815.533V382.8ZM816.813 383.952V387.44H818.861L821.165 385.056V383.952H816.813ZM816.813 388.608V392.848H821.325V389.76L820.509 388.608H816.813ZM827.863 382.8H829.159V392.848H832.039V394H824.967V392.848H827.863V384.48L825.847 386.56L825.175 385.552L827.863 382.8ZM835.345 382.8H839.921L841.633 385.36V391.648L839.537 394H835.201V392.848H839.009L840.337 391.312V388.608H836.257L834.561 386.08V383.616L835.345 382.8ZM835.841 385.904L836.865 387.44H840.337V385.536L839.281 383.952H835.841V385.904Z"
      fill="white" />
    <path
      d="M841.549 754.2H846.939L847.597 755.152V756.44L845.875 758.26H846.435L847.737 760.178V763.314L846.617 764H841.549V754.2ZM842.669 755.208V758.26H844.461L846.477 756.174V755.208H842.669ZM842.669 759.282V762.992H846.617V760.29L845.903 759.282H842.669ZM816.225 772.2H821.293L822.413 773.88V776.148L821.293 777.282H817.345V782H816.225V772.2ZM817.359 773.208V776.946L818.493 776.288H820.859L821.293 775.84V774.034L820.747 773.208H817.359ZM824.55 774.566H825.166L826.496 775.364L827.266 774.566H830.15L830.878 775.63L830.038 776.204L829.618 775.574H827.7L827.084 776.232V780.992H829.058V782H824.55V780.992H825.964V776.372L825.418 775.574H824.55V774.566ZM834.12 774.566H838.04L839.202 776.232L836.892 778.612H834.12V780.18L834.666 780.992H837.634L838.418 780.222L839.034 780.992L838.054 782H834.134L833 780.32V775.728L834.12 774.566ZM834.12 776.022V777.604H836.472L837.886 776.12L837.522 775.574H834.568L834.12 776.022ZM842.613 774.566H846.477L847.205 775.644L846.519 776.372L845.959 775.546H843.103L842.669 775.924V776.988L843.201 777.744H846.505L847.457 779.172V780.95L846.505 782H842.109L841.549 781.132L842.235 780.418L842.613 780.992H846.043L846.337 780.656V779.34L845.931 778.766H842.613L841.549 777.156V775.602L842.613 774.566ZM850.909 774.566H854.829L855.991 776.232L853.681 778.612H850.909V780.18L851.455 780.992H854.423L855.207 780.222L855.823 780.992L854.843 782H850.923L849.789 780.32V775.728L850.909 774.566ZM850.909 776.022V777.604H853.261L854.675 776.12L854.311 775.574H851.357L850.909 776.022ZM858.198 774.566H859.318V775.238L860.452 774.566H863.266L864.4 776.218V782H863.266V776.358L862.734 775.574H859.752L859.318 776.022V782H858.198V774.566ZM867.992 771.528H869.112V774.552H871.38V775.574H869.112V780.18L869.658 780.978H871.072L871.912 780.138L872.486 780.978L871.534 782H869.112L867.992 780.348V775.574H866.886V774.552H867.992V771.528ZM833.154 790.2H838.544L839.202 791.152V792.44L837.48 794.26H838.04L839.342 796.178V799.314L838.222 800H833.154V790.2ZM834.274 791.208V794.26H836.066L838.082 792.174V791.208H834.274ZM834.274 795.282V798.992H838.222V796.29L837.508 795.282H834.274ZM843.523 800V798.04H845.483V800H843.523ZM849.789 790.2H855.711V791.208H850.909V793.098L850.993 793.238H854.451L856.005 795.506V798.782L854.829 800H849.789V798.992H854.367L854.871 798.474V795.632L853.919 794.26H850.475L849.789 793.238V790.2Z"
      fill="white" />
    <path
      d="M1014.62 772.2H1019.69L1020.81 773.88V776.148L1019.69 777.282H1015.74V782H1014.62V772.2ZM1015.75 773.208V776.946L1016.89 776.288H1019.25L1019.69 775.84V774.034L1019.14 773.208H1015.75ZM1024.12 774.566H1028.04L1029.2 776.232L1026.89 778.612H1024.12V780.18L1024.67 780.992H1027.63L1028.42 780.222L1029.03 780.992L1028.05 782H1024.13L1023 780.32V775.728L1024.12 774.566ZM1024.12 776.022V777.604H1026.47L1027.89 776.12L1027.52 775.574H1024.57L1024.12 776.022ZM1032.44 774.258H1036.84L1037.72 775.56V782H1036.55V781.286L1035.37 782H1032.44L1031.27 780.25V779.69L1033.45 777.422H1036.55V775.294H1032.44V774.258ZM1032.44 780.11L1032.99 780.936H1036.55V778.486H1033.91L1032.44 779.998V780.11ZM1040.94 774.566H1044.87L1045.87 776.05L1045.15 776.792L1044.33 775.574H1041.37L1040.94 776.022V780.18L1041.48 780.992H1044.44L1045.26 780.138L1045.84 780.992L1044.87 782H1040.95L1039.82 780.32V775.728L1040.94 774.566ZM1049.3 774.566H1053.22L1054.39 776.232L1052.08 778.612H1049.3V780.18L1049.85 780.992H1052.82L1053.6 780.222L1054.22 780.992L1053.24 782H1049.32L1048.18 780.32V775.728L1049.3 774.566ZM1049.3 776.022V777.604H1051.66L1053.07 776.12L1052.71 775.574H1049.75L1049.3 776.022ZM1023.15 790.2H1028.54L1029.2 791.152V792.44L1027.48 794.26H1028.04L1029.34 796.178V799.314L1028.22 800H1023.15V790.2ZM1024.27 791.208V794.26H1026.07L1028.08 792.174V791.208H1024.27ZM1024.27 795.282V798.992H1028.22V796.29L1027.51 795.282H1024.27ZM1033.52 800V798.04H1035.48V800H1033.52ZM1039.79 790.2H1046.01V791.362L1043.21 794.26H1044.47L1046.01 796.542V798.782L1044.83 800H1039.79V798.992H1044.38L1044.89 798.474V796.654L1043.92 795.282H1041.92V794.148L1044.77 791.208H1039.79V790.2Z"
      fill="white" />
    <path
      d="M1014.62 772.2H1019.69L1020.81 773.88V776.148L1019.69 777.282H1015.74V782H1014.62V772.2ZM1015.75 773.208V776.946L1016.89 776.288H1019.25L1019.69 775.84V774.034L1019.14 773.208H1015.75ZM1024.12 774.566H1028.04L1029.2 776.232L1026.89 778.612H1024.12V780.18L1024.67 780.992H1027.63L1028.42 780.222L1029.03 780.992L1028.05 782H1024.13L1023 780.32V775.728L1024.12 774.566ZM1024.12 776.022V777.604H1026.47L1027.89 776.12L1027.52 775.574H1024.57L1024.12 776.022ZM1032.44 774.258H1036.84L1037.72 775.56V782H1036.55V781.286L1035.37 782H1032.44L1031.27 780.25V779.69L1033.45 777.422H1036.55V775.294H1032.44V774.258ZM1032.44 780.11L1032.99 780.936H1036.55V778.486H1033.91L1032.44 779.998V780.11ZM1040.94 774.566H1044.87L1045.87 776.05L1045.15 776.792L1044.33 775.574H1041.37L1040.94 776.022V780.18L1041.48 780.992H1044.44L1045.26 780.138L1045.84 780.992L1044.87 782H1040.95L1039.82 780.32V775.728L1040.94 774.566ZM1049.3 774.566H1053.22L1054.39 776.232L1052.08 778.612H1049.3V780.18L1049.85 780.992H1052.82L1053.6 780.222L1054.22 780.992L1053.24 782H1049.32L1048.18 780.32V775.728L1049.3 774.566ZM1049.3 776.022V777.604H1051.66L1053.07 776.12L1052.71 775.574H1049.75L1049.3 776.022ZM1023.15 790.2H1028.54L1029.2 791.152V792.44L1027.48 794.26H1028.04L1029.34 796.178V799.314L1028.22 800H1023.15V790.2ZM1024.27 791.208V794.26H1026.07L1028.08 792.174V791.208H1024.27ZM1024.27 795.282V798.992H1028.22V796.29L1027.51 795.282H1024.27ZM1033.52 800V798.04H1035.48V800H1033.52ZM1039.79 790.2H1046.01V791.362L1043.21 794.26H1044.47L1046.01 796.542V798.782L1044.83 800H1039.79V798.992H1044.38L1044.89 798.474V796.654L1043.92 795.282H1041.92V794.148L1044.77 791.208H1039.79V790.2Z"
      fill="white" />
    <path
      d="M913.099 702.2H916.991V712H915.871V707.52H911.951V712H910.831V704.538L913.099 702.2ZM911.951 704.804V706.512H915.871V703.208H913.505L911.951 704.804ZM920.247 704.258H924.643L925.525 705.56V712H924.349V711.286L923.173 712H920.247L919.071 710.25V709.69L921.255 707.422H924.349V705.294H920.247V704.258ZM920.247 710.11L920.793 710.936H924.349V708.486H921.717L920.247 709.998V710.11ZM927.606 704.566H928.726V705.238L929.86 704.566H932.674L933.808 706.218V712H932.674V706.358L932.142 705.574H929.16L928.726 706.022V712H927.606V704.566ZM938.031 711.174L937.233 711.944V713.064L937.793 713.904H939.879L941.055 712.714V711.594L940.789 711.174H938.031ZM937.233 705.938V708.094H939.921L941.055 707.394V706.05L940.523 705.28H937.835L937.233 705.938ZM939.949 709.13H937.793L937.275 709.662L937.569 710.138H941.335L942.189 711.468V712.952L940.299 714.926H937.275L936.099 713.176V711.706L936.897 710.908L935.987 709.55L936.715 708.822L936.099 708.444V705.63L937.415 704.258H939.935L941.055 704.944V704.258H942.189V707.758L939.949 709.13ZM915.154 720.2H920.544L921.202 721.152V722.44L919.48 724.26H920.04L921.342 726.178V729.314L920.222 730H915.154V720.2ZM916.274 721.208V724.26H918.066L920.082 722.174V721.208H916.274ZM916.274 725.282V728.992H920.222V726.29L919.508 725.282H916.274ZM925.523 730V728.04H927.483V730H925.523ZM932.937 720.2H936.927L938.005 721.81V723.28L932.909 728.53V728.992H938.005V730H931.789V728.236L937.277 722.552L936.381 721.208H933.357L932.363 722.202L931.803 721.362L932.937 720.2Z"
      fill="white" />
    <path
      d="M921.3 400H924.92L925.72 401.2V402.82L924.92 403.63H922.1V407H921.3V400ZM922.11 400.72V403.39L922.92 402.92H924.61L924.92 402.6V401.31L924.53 400.72H922.11ZM927.286 399.52H928.786L929.596 400V405.71L929.976 406.28H931.716L931.706 407H929.596L928.786 405.81V400.24H927.286V399.52ZM936.902 401.69H937.712V407H936.922V406.51L936.102 407H934.102L933.292 405.8V401.69H934.092V405.7L934.482 406.27H936.612L936.902 405.96V401.69ZM940.288 399.52H941.088V401.68H942.708V402.41H941.088V405.7L941.478 406.27H942.488L943.088 405.67L943.498 406.27L942.818 407H941.088L940.288 405.82V402.41H939.498V401.68H940.288V399.52ZM946.094 401.69H948.924L949.724 402.89V406.17L948.924 407H946.104L945.294 405.8V402.52L946.094 401.69ZM946.084 405.7L946.484 406.28H948.604L948.904 405.96V402.98L948.524 402.41H946.394L946.084 402.74V405.7ZM904.391 413H907.841V413.72H904.691L904.211 414.22V415.9H906.531V416.63H904.211V420H903.411V414L904.391 413ZM910.048 414.47H913.188L913.818 415.4V420H912.978V419.49L912.138 420H910.048L909.208 418.75V418.35L910.768 416.73H912.978V415.21H910.048V414.47ZM910.048 418.65L910.438 419.24H912.978V417.49H911.098L910.048 418.57V418.65ZM915.104 414.69H915.904V415.17L916.704 414.69H917.124L917.584 415.38L918.734 414.69H919.124L919.934 415.88V420H919.124V415.98L918.744 415.41H918.234L917.934 415.74V417.23H917.124V415.98L916.744 415.41H916.214L915.904 415.74V420H915.104V414.69ZM921.7 414.5H923.11L923.91 415.7V419.28H925.72V420H921.3V419.28H923.11V415.8L922.73 415.23H921.7V414.5ZM923.01 413.19H924.01V412.19H923.01V413.19ZM927.286 412.52H928.786L929.596 413V418.71L929.976 419.28H931.716L931.706 420H929.596L928.786 418.81V413.24H927.286V412.52ZM936.902 414.68H937.712V420.48L936.092 422.17H933.292V421.44H935.762L936.902 420.27V420H934.292L933.292 418.52V414.68H934.092V418.42L934.682 419.27H936.902V414.68ZM945.274 413H948.634L949.714 414.57V415.57L948.724 416.58L949.714 418.01V420H948.904V418.1L947.894 416.63H946.864L946.074 416.14V420H945.274V413ZM946.074 413.72V415.9H948.394L948.904 415.39V414.68L948.244 413.72H946.074ZM952.09 414.69H954.92L955.72 415.89V419.17L954.92 420H952.1L951.29 418.8V415.52L952.09 414.69ZM952.08 418.7L952.48 419.28H954.6L954.9 418.96V415.98L954.52 415.41H952.39L952.08 415.74V418.7ZM958.086 414.69H960.916L961.716 415.89V419.17L960.916 420H958.096L957.286 418.8V415.52L958.086 414.69ZM958.076 418.7L958.476 419.28H960.596L960.896 418.96V415.98L960.516 415.41H958.386L958.076 415.74V418.7ZM963.072 414.69H963.872V415.17L964.672 414.69H965.092L965.552 415.38L966.702 414.69H967.092L967.902 415.88V420H967.092V415.98L966.712 415.41H966.202L965.902 415.74V417.23H965.092V415.98L964.712 415.41H964.182L963.872 415.74V420H963.072V414.69ZM924.398 426H928.248L928.718 426.68V427.6L927.488 428.9H927.888L928.818 430.27V432.51L928.018 433H924.398V426ZM925.198 426.72V428.9H926.478L927.918 427.41V426.72H925.198ZM925.198 429.63V432.28H928.018V430.35L927.508 429.63H925.198ZM931.804 433V431.6H933.204V433H931.804ZM937.1 426H939.95L940.72 427.15V428.2L937.08 431.95V432.28H940.72V433H936.28V431.74L940.2 427.68L939.56 426.72H937.4L936.69 427.43L936.29 426.83L937.1 426ZM942.276 426H946.716V426.83L944.716 428.9H945.616L946.716 430.53V432.13L945.876 433H942.276V432.28H945.556L945.916 431.91V430.61L945.226 429.63H943.796V428.82L945.836 426.72H942.276V426Z"
      fill="white" />
    <path
      d="M1010.72 383.6H1014.06V392H1013.1V388.16H1009.74V392H1008.78V385.604L1010.72 383.6ZM1009.74 385.832V387.296H1013.1V384.464H1011.07L1009.74 385.832ZM1015.9 385.628H1016.43L1017.57 386.312L1018.23 385.628H1020.7L1021.32 386.54L1020.6 387.032L1020.24 386.492H1018.6L1018.07 387.056V391.136H1019.76V392H1015.9V391.136H1017.11V387.176L1016.64 386.492H1015.9V385.628ZM1024.36 383.024H1025.32V385.616H1027.26V386.492H1025.32V390.44L1025.78 391.124H1027L1027.72 390.404L1028.21 391.124L1027.39 392H1025.32L1024.36 390.584V386.492H1023.41V385.616H1024.36V383.024ZM1031.3 385.628H1034.66L1035.65 387.056L1033.67 389.096H1031.3V390.44L1031.77 391.136H1034.31L1034.98 390.476L1035.51 391.136L1034.67 392H1031.31L1030.34 390.56V386.624L1031.3 385.628ZM1031.3 386.876V388.232H1033.31L1034.53 386.96L1034.21 386.492H1031.68L1031.3 386.876ZM1037.31 385.628H1038.27V386.204L1039.23 385.628H1039.73L1040.28 386.456L1041.66 385.628H1042.13L1043.1 387.056V392H1042.13V387.176L1041.67 386.492H1041.06L1040.7 386.888V388.676H1039.73V387.176L1039.27 386.492H1038.64L1038.27 386.888V392H1037.31V385.628ZM1045.22 385.4H1046.91L1047.87 386.84V391.136H1050.04V392H1044.74V391.136H1046.91V386.96L1046.46 386.276H1045.22V385.4ZM1046.79 383.828H1047.99V382.628H1046.79V383.828ZM1052.97 385.628H1056.28L1056.9 386.552L1056.32 387.176L1055.84 386.468H1053.39L1053.02 386.792V387.704L1053.47 388.352H1056.3L1057.12 389.576V391.1L1056.3 392H1052.54L1052.06 391.256L1052.64 390.644L1052.97 391.136H1055.91L1056.16 390.848V389.72L1055.81 389.228H1052.97L1052.06 387.848V386.516L1052.97 385.628ZM1009.72 398.6H1013.11L1013.74 399.584L1013.13 400.184L1012.64 399.464H1010.08L1009.72 399.848V401.396L1010.2 402.092H1013.22L1014.07 403.364V406.124L1013.23 407H1009.29L1008.76 406.256L1009.36 405.62L1009.74 406.136H1012.82L1013.11 405.884V403.472L1012.75 402.956H1009.72L1008.76 401.528V399.596L1009.72 398.6ZM1017.16 398.024H1018.12V400.616H1020.06V401.492H1018.12V405.44L1018.59 406.124H1019.8L1020.52 405.404L1021.01 406.124L1020.2 407H1018.12L1017.16 405.584V401.492H1016.21V400.616H1017.16V398.024ZM1027.49 400.628H1028.46V407H1027.51V406.412L1026.53 407H1024.13L1023.16 405.56V400.628H1024.12V405.44L1024.58 406.124H1027.14L1027.49 405.752V400.628ZM1034.71 398.012H1035.68V407H1034.71V406.424L1033.75 407H1031.36L1030.36 405.548V401.636L1031.33 400.616H1033.73L1034.71 401.192V398.012ZM1031.33 405.428L1031.79 406.124H1034.36L1034.71 405.764V402.176L1034.25 401.492H1031.71L1031.33 401.876V405.428ZM1038.49 400.628H1041.85L1042.85 402.056L1040.87 404.096H1038.49V405.44L1038.96 406.136H1041.51L1042.18 405.476L1042.71 406.136L1041.87 407H1038.51L1037.53 405.56V401.624L1038.49 400.628ZM1038.49 401.876V403.232H1040.51L1041.72 401.96L1041.41 401.492H1038.88L1038.49 401.876ZM1044.74 400.628H1045.7V401.204L1046.67 400.628H1049.08L1050.06 402.044V407H1049.08V402.164L1048.63 401.492H1046.07L1045.7 401.876V407H1044.74V400.628ZM1053.14 398.024H1054.1V400.616H1056.04V401.492H1054.1V405.44L1054.56 406.124H1055.78L1056.5 405.404L1056.99 406.124L1056.17 407H1054.1L1053.14 405.584V401.492H1052.19V400.616H1053.14V398.024ZM1009.72 413.6H1013.11L1013.74 414.584L1013.13 415.184L1012.64 414.464H1010.08L1009.72 414.848V416.396L1010.2 417.092H1013.22L1014.07 418.364V421.124L1013.23 422H1009.29L1008.76 421.256L1009.36 420.62L1009.74 421.136H1012.82L1013.11 420.884V418.472L1012.75 417.956H1009.72L1008.76 416.528V414.596L1009.72 413.6ZM1016.91 415.628H1020.27L1021.26 417.056L1019.28 419.096H1016.91V420.44L1017.38 421.136H1019.92L1020.59 420.476L1021.12 421.136L1020.28 422H1016.92L1015.95 420.56V416.624L1016.91 415.628ZM1016.91 416.876V418.232H1018.92L1020.14 416.96L1019.82 416.492H1017.29L1016.91 416.876ZM1023.1 415.628H1023.62L1024.76 416.312L1025.42 415.628H1027.9L1028.52 416.54L1027.8 417.032L1027.44 416.492H1025.8L1025.27 417.056V421.136H1026.96V422H1023.1V421.136H1024.31V417.176L1023.84 416.492H1023.1V415.628ZM1034.69 415.616H1035.67V419.288L1033.05 422H1032.21L1030.35 419.24V415.616H1031.31V419.108L1032.68 421.148L1034.69 419.048V415.616ZM1038.03 415.4H1039.72L1040.68 416.84V421.136H1042.85V422H1037.55V421.136H1039.72V416.96L1039.26 416.276H1038.03V415.4ZM1039.6 413.828H1040.8V412.628H1039.6V413.828ZM1045.71 415.628H1049.08L1049.94 416.9L1049.32 417.536L1048.62 416.492H1046.08L1045.71 416.876V420.44L1046.18 421.136H1048.71L1049.42 420.404L1049.91 421.136L1049.08 422H1045.72L1044.75 420.56V416.624L1045.71 415.628ZM1052.88 415.628H1056.24L1057.24 417.056L1055.26 419.096H1052.88V420.44L1053.35 421.136H1055.9L1056.57 420.476L1057.1 421.136L1056.26 422H1052.9L1051.92 420.56V416.624L1052.88 415.628ZM1052.88 416.876V418.232H1054.9L1056.11 416.96L1055.8 416.492H1053.27L1052.88 416.876ZM1001.69 428.6H1005.39L1007.01 431.012V436.004L1006.05 437H1001.69V428.6ZM1002.65 429.464V436.136H1005.65L1006.03 435.74V431.132L1004.92 429.464H1002.65ZM1009.71 430.628H1013.07L1014.07 432.056L1012.09 434.096H1009.71V435.44L1010.18 436.136H1012.72L1013.4 435.476L1013.92 436.136L1013.08 437H1009.72L1008.75 435.56V431.624L1009.71 430.628ZM1009.71 431.876V433.232H1011.73L1012.94 431.96L1012.63 431.492H1010.1L1009.71 431.876ZM1016.99 430.628H1020.3L1020.93 431.552L1020.34 432.176L1019.86 431.468H1017.41L1017.04 431.792V432.704L1017.5 433.352H1020.33L1021.14 434.576V436.1L1020.33 437H1016.56L1016.08 436.256L1016.67 435.644L1016.99 436.136H1019.93L1020.18 435.848V434.72L1019.84 434.228H1016.99L1016.08 432.848V431.516L1016.99 430.628ZM1023.16 428.024H1024.12V432.872L1026.65 430.256H1027.85L1026.04 432.116L1028.47 435.716V437H1027.5V435.824L1025.41 432.764L1024.12 434.096V437H1023.16V428.024ZM1037.67 428.6H1042.29L1042.85 429.416V430.52L1041.37 432.08H1041.85L1042.97 433.724V436.412L1042.01 437H1037.67V428.6ZM1038.63 429.464V432.08H1040.16L1041.89 430.292V429.464H1038.63ZM1038.63 432.956V436.136H1042.01V433.82L1041.4 432.956H1038.63ZM1046.55 437V435.32H1048.23V437H1046.55ZM1052.91 428.6H1056.33L1057.25 429.98V431.24L1052.88 435.74V436.136H1057.25V437H1051.92V435.488L1056.63 430.616L1055.86 429.464H1053.27L1052.42 430.316L1051.94 429.596L1052.91 428.6ZM1060.1 428.6H1063.52L1064.45 429.98V431.24L1060.08 435.74V436.136H1064.45V437H1059.12V435.488L1063.82 430.616L1063.06 429.464H1060.46L1059.61 430.316L1059.13 429.596L1060.1 428.6Z"
      fill="white" />
    <path
      d="M926.275 313.6H930.895L931.459 314.416V315.52L929.983 317.08H930.463L931.579 318.724V321.412L930.619 322H926.275V313.6ZM927.235 314.464V317.08H928.771L930.499 315.292V314.464H927.235ZM927.235 317.956V321.136H930.619V318.82L930.007 317.956H927.235ZM934.322 313.6H937.742L938.666 314.98V316.24L934.298 320.74V321.136H938.666V322H933.338V320.488L938.042 315.616L937.274 314.464H934.682L933.83 315.316L933.35 314.596L934.322 313.6ZM941.518 313.6H944.902L945.85 315.028V321.004L944.902 322H941.518L940.546 320.56V314.596L941.518 313.6ZM941.506 314.86V319.108L944.878 315.616V315.16L944.41 314.464H941.878L941.506 314.86ZM941.506 320.44L941.974 321.136H944.518L944.878 320.74V316.852L941.506 320.356V320.44ZM916.322 328.6H919.706L920.342 329.584L919.73 330.184L919.238 329.464H916.682L916.322 329.848V331.396L916.802 332.092H919.814L920.666 333.364V336.124L919.826 337H915.89L915.362 336.256L915.962 335.62L916.334 336.136H919.418L919.706 335.884V333.472L919.346 332.956H916.322L915.362 331.528V329.596L916.322 328.6ZM923.037 330.4H924.729L925.689 331.84V336.136H927.861V337H922.557V336.136H924.729V331.96L924.273 331.276H923.037V330.4ZM924.609 328.828H925.809V327.628H924.609V328.828ZM929.741 328.024H931.541L932.513 328.6V335.452L932.969 336.136H935.057L935.045 337H932.513L931.541 335.572V328.888H929.741V328.024ZM937.896 330.628H941.256L942.252 332.056L940.272 334.096H937.896V335.44L938.364 336.136H940.908L941.58 335.476L942.108 336.136L941.268 337H937.908L936.936 335.56V331.624L937.896 330.628ZM937.896 331.876V333.232H939.912L941.124 331.96L940.812 331.492H938.28L937.896 331.876ZM944.143 330.628H945.103V331.204L946.075 330.628H948.487L949.459 332.044V337H948.487V332.164L948.031 331.492H945.475L945.103 331.876V337H944.143V330.628ZM952.539 328.024H953.499V330.616H955.443V331.492H953.499V335.44L953.967 336.124H955.179L955.899 335.404L956.391 336.124L955.575 337H953.499L952.539 335.584V331.492H951.591V330.616H952.539V328.024ZM915.302 345.628H915.83L916.97 346.312L917.63 345.628H920.102L920.726 346.54L920.006 347.032L919.646 346.492H918.002L917.474 347.056V351.136H919.166V352H915.302V351.136H916.514V347.176L916.046 346.492H915.302V345.628ZM926.889 345.628H927.861V352H926.913V351.412L925.929 352H923.529L922.557 350.56V345.628H923.517V350.44L923.985 351.124H926.541L926.889 350.752V345.628ZM929.753 345.628H930.713V346.204L931.685 345.628H934.097L935.069 347.044V352H934.097V347.164L933.641 346.492H931.085L930.713 346.876V352H929.753V345.628ZM936.948 345.628H937.908V346.204L938.88 345.628H941.292L942.264 347.044V352H941.292V347.164L940.836 346.492H938.28L937.908 346.876V352H936.948V345.628ZM945.091 345.628H948.451L949.447 347.056L947.467 349.096H945.091V350.44L945.559 351.136H948.103L948.775 350.476L949.303 351.136L948.463 352H945.103L944.131 350.56V346.624L945.091 345.628ZM945.091 346.876V348.232H947.107L948.319 346.96L948.007 346.492H945.475L945.091 346.876ZM951.279 345.628H951.807L952.947 346.312L953.607 345.628H956.079L956.703 346.54L955.983 347.032L955.623 346.492H953.979L953.451 347.056V351.136H955.143V352H951.279V351.136H952.491V347.176L952.023 346.492H951.279V345.628Z"
      fill="white" />
    <path
      d="M1019.84 329.5H1025.62L1026.32 330.52V331.9L1024.48 333.85H1025.08L1026.47 335.905V339.265L1025.27 340H1019.84V329.5ZM1021.04 330.58V333.85H1022.96L1025.12 331.615V330.58H1021.04ZM1021.04 334.945V338.92H1025.27V336.025L1024.51 334.945H1021.04ZM1029.9 329.5H1034.18L1035.33 331.225V332.8L1029.87 338.425V338.92H1035.33V340H1028.67V338.11L1034.55 332.02L1033.59 330.58H1030.35L1029.29 331.645L1028.69 330.745L1029.9 329.5ZM1040.4 329.5H1041.61V338.92H1044.31V340H1037.68V338.92H1040.4V331.075L1038.51 333.025L1037.88 332.08L1040.4 329.5Z"
      fill="white" />
    <path
      d="M941.154 765.2H946.544L947.202 766.152V767.44L945.48 769.26H946.04L947.342 771.178V774.314L946.222 775H941.154V765.2ZM942.274 766.208V769.26H944.066L946.082 767.174V766.208H942.274ZM942.274 770.282V773.992H946.222V771.29L945.508 770.282H942.274ZM951.523 775V773.04H953.483V775H951.523ZM961.779 765.2H963.571V770.604H964.411V771.626H963.571V775H962.437V771.626H958.671L957.383 769.736L961.779 765.2ZM958.671 769.862L959.175 770.604H962.437V765.97L958.671 769.862Z"
      fill="white" />
    <path
      d="M774.47 755.6H779.09L779.654 756.416V757.52L778.178 759.08H778.658L779.774 760.724V763.412L778.814 764H774.47V755.6ZM775.43 756.464V759.08H776.966L778.694 757.292V756.464H775.43ZM775.43 759.956V763.136H778.814V760.82L778.202 759.956H775.43ZM761.916 770.6H765.252V779H764.292V775.16H760.932V779H759.972V772.604L761.916 770.6ZM760.932 772.832V774.296H764.292V771.464H762.264L760.932 772.832ZM767.143 770.024H768.943L769.915 770.6V777.452L770.371 778.136H772.459L772.447 779H769.915L768.943 777.572V770.888H767.143V770.024ZM775.55 770.024H776.51V772.616H778.454V773.492H776.51V777.44L776.978 778.124H778.19L778.91 777.404L779.402 778.124L778.586 779H776.51L775.55 777.584V773.492H774.602V772.616H775.55V770.024ZM782.494 772.628H785.854L786.85 774.056L784.87 776.096H782.494V777.44L782.962 778.136H785.506L786.178 777.476L786.706 778.136L785.866 779H782.506L781.534 777.56V773.624L782.494 772.628ZM782.494 773.876V775.232H784.51L785.722 773.96L785.41 773.492H782.878L782.494 773.876ZM788.681 772.628H789.209L790.349 773.312L791.009 772.628H793.481L794.105 773.54L793.385 774.032L793.025 773.492H791.381L790.853 774.056V778.136H792.545V779H788.681V778.136H789.893V774.176L789.425 773.492H788.681V772.628ZM767.275 785.6H771.895L772.459 786.416V787.52L770.983 789.08H771.463L772.579 790.724V793.412L771.619 794H767.275V785.6ZM768.235 786.464V789.08H769.771L771.499 787.292V786.464H768.235ZM768.235 789.956V793.136H771.619V790.82L771.007 789.956H768.235ZM776.162 794V792.32H777.842V794H776.162ZM782.506 785.6H785.878V786.464H782.878L782.506 786.848V789.956L783.37 789.08H786.334L786.85 789.848V792.584L785.47 794H782.506L781.546 792.536V786.596L782.506 785.6ZM782.506 792.44L782.998 793.136H785.11L785.878 792.332V789.956H783.73L782.506 791.18V792.44Z"
      fill="white" />
    <path
      d="M312.606 760.2H313.726V764.918L314.832 764.26H316.554L317.688 764.918V760.2H318.822V770H317.688V766.052L317.156 765.282H314.146L313.726 765.702V770H312.606V760.2ZM322.05 762.258H326.446L327.328 763.56V770H326.152V769.286L324.976 770H322.05L320.874 768.25V767.69L323.058 765.422H326.152V763.294H322.05V762.258ZM322.05 768.11L322.596 768.936H326.152V766.486H323.52L322.05 767.998V768.11ZM329.409 762.566H330.529V763.238L331.663 762.566H334.477L335.611 764.218V770H334.477V764.358L333.945 763.574H330.963L330.529 764.022V770H329.409V762.566ZM339.917 760.2H341.877V763.868L340.659 765.1L340.085 764.218L340.757 763.518V762.062H339.917V760.2ZM347.402 762.566H351.266L351.994 763.644L351.308 764.372L350.748 763.546H347.892L347.458 763.924V764.988L347.99 765.744H351.294L352.246 767.172V768.95L351.294 770H346.898L346.338 769.132L347.024 768.418L347.402 768.992H350.832L351.126 768.656V767.34L350.72 766.766H347.402L346.338 765.156V763.602L347.402 762.566ZM308.408 778.2H314.624V780.832L313.238 782.26H313.49V783.282H311.124L311.81 783.702L309.528 786.054V786.992H314.624V788H308.408V785.788L310.83 783.282H310.522V782.26H312.986L312.272 781.812L313.49 780.524V779.208H308.408V778.2ZM317.377 780.3H319.351L320.471 781.98V786.992H323.005V788H316.817V786.992H319.351V782.12L318.819 781.322H317.377V780.3ZM319.211 778.466H320.611V777.066H319.211V778.466ZM324.931 780.566H326.051V781.238L327.171 780.566H327.759L328.403 781.532L330.013 780.566H330.559L331.693 782.232V788H330.559V782.372L330.027 781.574H329.313L328.893 782.036V784.122H327.759V782.372L327.227 781.574H326.485L326.051 782.036V788H324.931V780.566ZM333.326 780.566H334.446V781.238L335.566 780.566H336.154L336.798 781.532L338.408 780.566H338.954L340.088 782.232V788H338.954V782.372L338.422 781.574H337.708L337.288 782.036V784.122H336.154V782.372L335.622 781.574H334.88L334.446 782.036V788H333.326V780.566ZM343.107 780.566H347.027L348.189 782.232L345.879 784.612H343.107V786.18L343.653 786.992H346.621L347.405 786.222L348.021 786.992L347.041 788H343.121L341.987 786.32V781.728L343.107 780.566ZM343.107 782.022V783.604H345.459L346.873 782.12L346.509 781.574H343.555L343.107 782.022ZM350.325 780.566H350.941L352.271 781.364L353.041 780.566H355.925L356.653 781.63L355.813 782.204L355.393 781.574H353.475L352.859 782.232V786.992H354.833V788H350.325V786.992H351.739V782.372L351.193 781.574H350.325V780.566ZM316.957 796.2H322.347L323.005 797.152V798.44L321.283 800.26H321.843L323.145 802.178V805.314L322.025 806H316.957V796.2ZM318.077 797.208V800.26H319.869L321.885 798.174V797.208H318.077ZM318.077 801.282V804.992H322.025V802.29L321.311 801.282H318.077ZM327.325 806V804.04H329.285V806H327.325ZM336.14 796.2H337.274V804.992H339.794V806H333.606V804.992H336.14V797.67L334.376 799.49L333.788 798.608L336.14 796.2ZM343.135 796.2H347.125L348.203 797.81V799.28L343.107 804.53V804.992H348.203V806H341.987V804.236L347.475 798.552L346.579 797.208H343.555L342.561 798.202L342.001 797.362L343.135 796.2Z"
      fill="white" />
    <path
      d="M98.8073 860H109.247V861.44H103.287L104.847 862.4V874H103.227V862.6L102.467 861.44H98.8073V860ZM113.18 863.38H118.78L120.44 865.76L117.14 869.16H113.18V871.4L113.96 872.56H118.2L119.32 871.46L120.2 872.56L118.8 874H113.2L111.58 871.6V865.04L113.18 863.38ZM113.18 865.46V867.72H116.54L118.56 865.6L118.04 864.82H113.82L113.18 865.46ZM125.592 859.04H127.192V863.36H130.432V864.82H127.192V871.4L127.972 872.54H129.992L131.192 871.34L132.012 872.54L130.652 874H127.192L125.592 871.64V864.82H124.012V863.36H125.592V859.04ZM147.476 863.38H148.356L150.256 864.52L151.356 863.38H155.476L156.516 864.9L155.316 865.72L154.716 864.82H151.976L151.096 865.76V872.56H153.916V874H147.476V872.56H149.496V865.96L148.716 864.82H147.476V863.38ZM160.368 863H163.188L164.788 865.4V872.56H168.408V874H159.568V872.56H163.188V865.6L162.428 864.46H160.368V863ZM162.988 860.38H164.988V858.38H162.988V860.38ZM173.28 863.38H178.8L179.84 864.92L178.86 865.96L178.06 864.78H173.98L173.36 865.32V866.84L174.12 867.92H178.84L180.2 869.96V872.5L178.84 874H172.56L171.76 872.76L172.74 871.74L173.28 872.56H178.18L178.6 872.08V870.2L178.02 869.38H173.28L171.76 867.08V864.86L173.28 863.38ZM90.8752 886H96.4352V900H94.8352V893.6H89.2352V900H87.6352V889.34L90.8752 886ZM89.2352 889.72V892.16H94.8352V887.44H91.4552L89.2352 889.72ZM102.627 900V897.2H105.427V900H102.627ZM115.22 886H116.84V898.56H120.44V900H111.6V898.56H115.22V888.1L112.7 890.7L111.86 889.44L115.22 886ZM127.212 886H128.832V898.56H132.432V900H123.592V898.56H127.212V888.1L124.692 890.7L123.852 889.44L127.212 886ZM150.836 886H156.396V900H154.796V893.6H149.196V900H147.596V889.34L150.836 886ZM149.196 889.72V892.16H154.796V887.44H151.416L149.196 889.72ZM162.588 900V897.2H165.388V900H162.588ZM175.18 886H176.8V898.56H180.4V900H171.56V898.56H175.18V888.1L172.66 890.7L171.82 889.44L175.18 886ZM185.173 886H190.873L192.413 888.3V890.4L185.133 897.9V898.56H192.413V900H183.533V897.48L191.373 889.36L190.093 887.44H185.773L184.353 888.86L183.553 887.66L185.173 886Z"
      fill="white" />
    <path
      d="M1050.8 613.896V606.616L1053.4 604.874L1054.75 606.2L1052.67 607.604V613.116L1053.5 613.896H1065.72L1067.13 612.986V606.564H1060.24V610.23H1058.37V605.524L1059.98 604.458H1069V613.974L1066.01 615.976H1052.98L1050.8 613.896ZM1054.62 598.202V590.038L1057.04 588.4H1069V590.584H1067.67L1069 592.768V598.202L1065.75 600.386H1064.71L1060.5 596.33V590.584H1056.55V598.202H1054.62ZM1065.49 598.202L1067.02 597.188V590.584H1062.47V595.472L1065.28 598.202H1065.49ZM1055.19 584.666V583.522L1056.68 581.052L1055.19 579.622V574.266L1057.17 572.914L1058.24 574.474L1057.07 575.254V578.816L1058.29 579.96H1067.13V576.294H1069V584.666H1067.13V582.04H1058.55L1057.07 583.054V584.666H1055.19ZM1049.53 559.508V557.402H1069V559.508H1067.75L1069 561.588V566.762L1065.85 568.92H1057.38L1055.17 566.814V561.614L1056.42 559.508H1049.53ZM1065.59 566.814L1067.1 565.826V560.262L1066.32 559.508H1058.55L1057.07 560.496V566.008L1057.9 566.814H1065.59ZM1055.19 551.302V544.022L1058.29 541.864L1062.71 546.154V551.302H1065.62L1067.13 550.288V544.776L1065.7 543.32L1067.13 542.176L1069 543.996V551.276L1065.88 553.382H1057.35L1055.19 551.302ZM1057.9 551.302H1060.84V546.934L1058.08 544.308L1057.07 544.984V550.47L1057.9 551.302ZM1055.19 537.766V535.686H1056.44L1055.19 533.58V528.354L1058.26 526.248H1069V528.354H1058.52L1057.07 529.342V534.88L1057.9 535.686H1069V537.766H1055.19Z"
      fill="white" />


  </g>
</svg>