<svg width="1409" height="993" viewBox="0 0 1409 993" fill="none" xmlns="http://www.w3.org/2000/svg">
<path d="M3 990V3H1406V990H3Z" stroke="black" stroke-width="5"/>
<path d="M77 127.076V13H547.233V127.076H77Z" stroke="black" stroke-width="5"/>
<path d="M158.868 504.214V134.557H567.53V13H898.385V256.114H604.066V604.576H942.363V323.437H1130.46V373.93H1372V968H204.876L190.668 504.214H158.868Z" stroke="black" stroke-width="5"/>
<path d="M578.12 733.103V736.843M578.12 736.843V785.464H774.214V736.843H578.12ZM422.598 331.048V483.767H582.178V331.048H422.598ZM315.761 496.233V253.753H167V496.233H315.761ZM422.598 264.35H497.654V320.451H422.598V264.35ZM505.769 264.35H582.178V320.451H505.769V264.35ZM202.838 634.615H365.798V791.074H430.712V960H212.981L202.838 634.615ZM422.598 668.899V625.265H473.312V668.899H422.598ZM533.492 625.265H602.463V668.899H533.492V625.265ZM760.69 625.265H818.166V683.859H760.69V625.265ZM829.661 625.265V683.859H865.499V625.265H829.661ZM877.67 625.265V683.859H938.527V625.265H877.67ZM950.022 636.485V683.859H1026.43V636.485H950.022ZM1037.25 636.485V683.859H1119.07V636.485H1037.25ZM1049.42 576.021V625.265H950.022V576.021H1049.42ZM958.813 733.103V958.753H839.128V733.103H958.813ZM1058.89 791.074V958.753H968.955V791.074H1058.89ZM1073.09 791.074V958.753H1351V691.963H1188.04V791.074H1073.09ZM1188.04 497.48V675.133H1351V497.48H1188.04ZM1188.04 387.772V487.507H1351V387.772H1188.04ZM1151.53 20V129.708H1351V20H1151.53ZM1134.62 20V129.708H907.423V20H1134.62ZM569.33 149.655V200.769H774.214V149.655H569.33ZM578.12 803.541V956.26H631.539V803.541H578.12ZM1037.93 331.048V387.772H1120.42V331.048H1037.93ZM951.375 332.918V387.772H1031.16V332.918H951.375Z" stroke="black" stroke-width="5"/>
<path d="M647 564V410H891V564H647Z" stroke="black" stroke-width="5"/>
<path d="M739.656 347.863V265.722H611.848V347.863H739.656Z" stroke="black" stroke-width="5"/>
<path d="M753.857 344.129V265.722H834.329V344.129H753.857Z" stroke="black" stroke-width="5"/>
<path d="M851.235 344.129V265.722H928.325V344.129H851.235Z" stroke="black" stroke-width="5"/>
<path d="M945.231 313.638V265.722H1023.67V313.638H945.231Z" stroke="black" stroke-width="5"/>
<path d="M1042.61 313.638V265.722H1120.38V313.638H1042.61Z" stroke="black" stroke-width="5"/>
<path d="M908.715 211.584V145H994.596V211.584H908.715Z" stroke="black" stroke-width="5"/>
<path d="M1194.76 250.787V145H1353V250.787H1194.76Z" stroke="black" stroke-width="5"/>
<path d="M1194.76 362.175V265.722H1353V362.175H1194.76Z" stroke="black" stroke-width="5"/>
<path d="M10 631V517.745H181.087V631H10Z" stroke="black" stroke-width="5"/>
</svg>
