<svg width="46" height="46" viewBox="0 0 46 46" fill="none" xmlns="http://www.w3.org/2000/svg">
<rect width="46" height="46" rx="10" fill="#102534"/>
<path d="M23 20.875C21.591 20.875 20.2398 20.3153 19.2435 19.319C18.2472 18.3227 17.6875 16.9715 17.6875 15.5625C17.6875 14.1535 18.2472 12.8023 19.2435 11.806C20.2398 10.8097 21.591 10.25 23 10.25C24.409 10.25 25.7602 10.8097 26.7565 11.806C27.7528 12.8023 28.3125 14.1535 28.3125 15.5625C28.3125 16.9715 27.7528 18.3227 26.7565 19.319C25.7602 20.3153 24.409 20.875 23 20.875ZM23 12.375C21.2362 12.375 19.8125 13.7987 19.8125 15.5625C19.8125 17.3263 21.2362 18.75 23 18.75C24.7638 18.75 26.1875 17.3263 26.1875 15.5625C26.1875 13.7987 24.7638 12.375 23 12.375Z" fill="#05D9FF"/>
<path d="M35.75 29.375C35.155 29.375 34.6875 28.9075 34.6875 28.3125C34.6875 27.7175 35.155 27.25 35.75 27.25C36.345 27.25 36.8125 26.7825 36.8125 26.1875C36.8125 24.7785 36.2528 23.4273 35.2565 22.431C34.2602 21.4347 32.909 20.875 31.5 20.875H29.375C28.78 20.875 28.3125 20.4075 28.3125 19.8125C28.3125 19.2175 28.78 18.75 29.375 18.75C31.1388 18.75 32.5625 17.3263 32.5625 15.5625C32.5625 13.7987 31.1388 12.375 29.375 12.375C28.78 12.375 28.3125 11.9075 28.3125 11.3125C28.3125 10.7175 28.78 10.25 29.375 10.25C30.784 10.25 32.1352 10.8097 33.1315 11.806C34.1278 12.8023 34.6875 14.1535 34.6875 15.5625C34.6875 16.88 34.22 18.07 33.4125 19.005C36.5787 19.855 38.9375 22.745 38.9375 26.1875C38.9375 27.9513 37.5138 29.375 35.75 29.375ZM10.25 29.375C8.48625 29.375 7.0625 27.9513 7.0625 26.1875C7.0625 22.745 9.4 19.855 12.5875 19.005C11.8012 18.07 11.3125 16.88 11.3125 15.5625C11.3125 14.1535 11.8722 12.8023 12.8685 11.806C13.8648 10.8097 15.216 10.25 16.625 10.25C17.22 10.25 17.6875 10.7175 17.6875 11.3125C17.6875 11.9075 17.22 12.375 16.625 12.375C14.8612 12.375 13.4375 13.7987 13.4375 15.5625C13.4375 17.3263 14.8612 18.75 16.625 18.75C17.22 18.75 17.6875 19.2175 17.6875 19.8125C17.6875 20.4075 17.22 20.875 16.625 20.875H14.5C13.091 20.875 11.7398 21.4347 10.7435 22.431C9.74721 23.4273 9.1875 24.7785 9.1875 26.1875C9.1875 26.7825 9.655 27.25 10.25 27.25C10.845 27.25 11.3125 27.7175 11.3125 28.3125C11.3125 28.9075 10.845 29.375 10.25 29.375ZM29.375 35.75H16.625C14.8612 35.75 13.4375 34.3263 13.4375 32.5625V30.4375C13.4375 26.3363 16.7738 23 20.875 23H25.125C29.2262 23 32.5625 26.3363 32.5625 30.4375V32.5625C32.5625 34.3263 31.1388 35.75 29.375 35.75ZM20.875 25.125C19.466 25.125 18.1148 25.6847 17.1185 26.681C16.1222 27.6773 15.5625 29.0285 15.5625 30.4375V32.5625C15.5625 33.1575 16.03 33.625 16.625 33.625H29.375C29.97 33.625 30.4375 33.1575 30.4375 32.5625V30.4375C30.4375 29.0285 29.8778 27.6773 28.8815 26.681C27.8852 25.6847 26.534 25.125 25.125 25.125H20.875Z" fill="#05D9FF"/>
</svg>
