<svg width="12" height="11" viewBox="0 0 12 11" fill="none" xmlns="http://www.w3.org/2000/svg">
<path fill-rule="evenodd" clip-rule="evenodd" d="M6.15924 7.76518C6.45451 7.76518 6.7377 7.88451 6.94649 8.09691C7.15529 8.3093 7.27259 8.59738 7.27259 8.89776C7.27259 9.19813 7.15529 9.48621 6.94649 9.69861C6.7377 9.91101 6.45451 10.0303 6.15924 10.0303C5.86396 10.0303 5.58077 9.91101 5.37198 9.69861C5.16318 9.48621 5.04588 9.19813 5.04588 8.89776C5.04588 8.59738 5.16318 8.3093 5.37198 8.09691C5.58077 7.88451 5.86396 7.76518 6.15924 7.76518ZM6.15924 5.58327C6.69153 5.58302 7.21532 5.71911 7.68231 5.979C8.14929 6.23889 8.54443 6.61421 8.83128 7.07035C8.88465 7.15877 8.9018 7.26496 8.87906 7.36611C8.85633 7.46727 8.79551 7.55531 8.70966 7.61136C8.62382 7.6674 8.51979 7.68697 8.41993 7.66586C8.32006 7.64475 8.23231 7.58465 8.17551 7.49846C7.95918 7.15413 7.66105 6.8708 7.30865 6.67464C6.95625 6.47847 6.56095 6.37579 6.15924 6.37608C5.75718 6.37578 5.36155 6.47863 5.00892 6.67511C4.6563 6.87159 4.35808 7.15535 4.14184 7.50016C4.08611 7.58869 3.99808 7.65108 3.89713 7.6736C3.79618 7.69611 3.69057 7.67691 3.60354 7.62021C3.5165 7.56352 3.45517 7.47397 3.43304 7.37127C3.41091 7.26858 3.42979 7.16115 3.48552 7.07261C3.77226 6.61581 4.16755 6.23989 4.63486 5.97959C5.10218 5.71928 5.62645 5.58298 6.15924 5.58327ZM6.15924 3.34983C7.86266 3.34983 9.42302 4.13188 10.4323 5.45869C10.4947 5.54189 10.5222 5.64681 10.5088 5.75056C10.4955 5.85431 10.4423 5.94848 10.361 6.01253C10.2796 6.07659 10.1767 6.10533 10.0746 6.09249C9.97254 6.07965 9.87959 6.02628 9.81604 5.944C8.95319 4.81086 7.62051 4.14264 6.15868 4.14264C5.45726 4.14182 4.76489 4.3038 4.1343 4.61625C3.5037 4.9287 2.95148 5.38339 2.51969 5.9457C2.48857 5.98788 2.44949 6.02332 2.40473 6.04995C2.35997 6.07657 2.31044 6.09384 2.25905 6.10074C2.20765 6.10765 2.15541 6.10405 2.10539 6.09016C2.05538 6.07627 2.00859 6.05236 1.96777 6.01985C1.92695 5.98733 1.89292 5.94685 1.86767 5.90078C1.84243 5.85472 1.82647 5.80399 1.82074 5.75157C1.81501 5.69915 1.81962 5.6461 1.8343 5.59552C1.84898 5.54493 1.87343 5.49784 1.90623 5.45699C2.41094 4.79987 3.05634 4.26853 3.79333 3.90338C4.53032 3.53824 5.33948 3.34892 6.15924 3.34983ZM6.15924 0.969727C8.33305 0.969727 10.1912 1.81916 11.6252 3.41609C11.695 3.49374 11.7316 3.5964 11.7269 3.70148C11.7223 3.80656 11.6768 3.90547 11.6005 3.97643C11.5241 4.0474 11.4232 4.08461 11.3199 4.07988C11.2166 4.07516 11.1194 4.02888 11.0496 3.95123C9.76204 2.51682 8.11261 1.76253 6.15924 1.76253C4.25429 1.76253 2.56701 2.53948 1.26606 3.95406C1.2322 3.9958 1.19031 4.03005 1.14295 4.0547C1.09559 4.07934 1.04377 4.09386 0.990689 4.09736C0.937606 4.10087 0.884379 4.09327 0.83429 4.07505C0.7842 4.05684 0.738307 4.02838 0.699439 3.99143C0.66057 3.95449 0.62955 3.90984 0.608287 3.86024C0.587025 3.81063 0.575971 3.75713 0.575808 3.70301C0.575644 3.6489 0.586373 3.59533 0.607335 3.54559C0.628296 3.49586 0.659046 3.45101 0.69769 3.41383C2.14226 1.84068 4.0344 0.969727 6.15868 0.969727H6.15924Z" fill="black"/>
</svg>
